G04 #@! TF.GenerationSoftware,KiCad,Pcbnew,(6.0.0)*
G04 #@! TF.CreationDate,2022-02-19T12:29:41-05:00*
G04 #@! TF.ProjectId,Card_PCB,43617264-5f50-4434-922e-6b696361645f,1.0*
G04 #@! TF.SameCoordinates,Original*
G04 #@! TF.FileFunction,Paste,Top*
G04 #@! TF.FilePolarity,Positive*
%FSLAX46Y46*%
G04 Gerber Fmt 4.6, Leading zero omitted, Abs format (unit mm)*
G04 Created by KiCad (PCBNEW (6.0.0)) date 2022-02-19 12:29:41*
%MOMM*%
%LPD*%
G01*
G04 APERTURE LIST*
G04 Aperture macros list*
%AMRoundRect*
0 Rectangle with rounded corners*
0 $1 Rounding radius*
0 $2 $3 $4 $5 $6 $7 $8 $9 X,Y pos of 4 corners*
0 Add a 4 corners polygon primitive as box body*
4,1,4,$2,$3,$4,$5,$6,$7,$8,$9,$2,$3,0*
0 Add four circle primitives for the rounded corners*
1,1,$1+$1,$2,$3*
1,1,$1+$1,$4,$5*
1,1,$1+$1,$6,$7*
1,1,$1+$1,$8,$9*
0 Add four rect primitives between the rounded corners*
20,1,$1+$1,$2,$3,$4,$5,0*
20,1,$1+$1,$4,$5,$6,$7,0*
20,1,$1+$1,$6,$7,$8,$9,0*
20,1,$1+$1,$8,$9,$2,$3,0*%
G04 Aperture macros list end*
%ADD10C,0.010000*%
%ADD11RoundRect,0.225000X0.225000X0.250000X-0.225000X0.250000X-0.225000X-0.250000X0.225000X-0.250000X0*%
%ADD12RoundRect,0.140000X-0.180000X0.140000X-0.180000X-0.140000X0.180000X-0.140000X0.180000X0.140000X0*%
%ADD13RoundRect,0.087500X-0.087500X0.175000X-0.087500X-0.175000X0.087500X-0.175000X0.087500X0.175000X0*%
%ADD14RoundRect,0.225000X0.250000X-0.225000X0.250000X0.225000X-0.250000X0.225000X-0.250000X-0.225000X0*%
%ADD15RoundRect,0.225000X-0.250000X0.225000X-0.250000X-0.225000X0.250000X-0.225000X0.250000X0.225000X0*%
%ADD16R,1.100000X1.100000*%
%ADD17R,0.400000X0.800000*%
%ADD18RoundRect,0.150000X-0.150000X0.587500X-0.150000X-0.587500X0.150000X-0.587500X0.150000X0.587500X0*%
%ADD19RoundRect,0.200000X-0.200000X-0.275000X0.200000X-0.275000X0.200000X0.275000X-0.200000X0.275000X0*%
%ADD20R,1.200000X3.700000*%
G04 APERTURE END LIST*
D10*
X141625000Y-92900001D02*
X141375000Y-92900001D01*
X141375000Y-92900001D02*
X141375000Y-92250001D01*
X141375000Y-92250001D02*
X141625000Y-92250001D01*
X141625000Y-92250001D02*
X141625000Y-92900001D01*
G36*
X141625000Y-92900001D02*
G01*
X141375000Y-92900001D01*
X141375000Y-92250001D01*
X141625000Y-92250001D01*
X141625000Y-92900001D01*
G37*
X141625000Y-92900001D02*
X141375000Y-92900001D01*
X141375000Y-92250001D01*
X141625000Y-92250001D01*
X141625000Y-92900001D01*
X140625000Y-92900001D02*
X140375000Y-92900001D01*
X140375000Y-92900001D02*
X140375000Y-92250001D01*
X140375000Y-92250001D02*
X140625000Y-92250001D01*
X140625000Y-92250001D02*
X140625000Y-92900001D01*
G36*
X140625000Y-92900001D02*
G01*
X140375000Y-92900001D01*
X140375000Y-92250001D01*
X140625000Y-92250001D01*
X140625000Y-92900001D01*
G37*
X140625000Y-92900001D02*
X140375000Y-92900001D01*
X140375000Y-92250001D01*
X140625000Y-92250001D01*
X140625000Y-92900001D01*
X146125000Y-92900001D02*
X145875000Y-92900001D01*
X145875000Y-92900001D02*
X145875000Y-92250001D01*
X145875000Y-92250001D02*
X146125000Y-92250001D01*
X146125000Y-92250001D02*
X146125000Y-92900001D01*
G36*
X146125000Y-92900001D02*
G01*
X145875000Y-92900001D01*
X145875000Y-92250001D01*
X146125000Y-92250001D01*
X146125000Y-92900001D01*
G37*
X146125000Y-92900001D02*
X145875000Y-92900001D01*
X145875000Y-92250001D01*
X146125000Y-92250001D01*
X146125000Y-92900001D01*
X143625000Y-92900001D02*
X143375000Y-92900001D01*
X143375000Y-92900001D02*
X143375000Y-92250001D01*
X143375000Y-92250001D02*
X143625000Y-92250001D01*
X143625000Y-92250001D02*
X143625000Y-92900001D01*
G36*
X143625000Y-92900001D02*
G01*
X143375000Y-92900001D01*
X143375000Y-92250001D01*
X143625000Y-92250001D01*
X143625000Y-92900001D01*
G37*
X143625000Y-92900001D02*
X143375000Y-92900001D01*
X143375000Y-92250001D01*
X143625000Y-92250001D01*
X143625000Y-92900001D01*
X146625000Y-92900001D02*
X146375000Y-92900001D01*
X146375000Y-92900001D02*
X146375000Y-92250001D01*
X146375000Y-92250001D02*
X146625000Y-92250001D01*
X146625000Y-92250001D02*
X146625000Y-92900001D01*
G36*
X146625000Y-92900001D02*
G01*
X146375000Y-92900001D01*
X146375000Y-92250001D01*
X146625000Y-92250001D01*
X146625000Y-92900001D01*
G37*
X146625000Y-92900001D02*
X146375000Y-92900001D01*
X146375000Y-92250001D01*
X146625000Y-92250001D01*
X146625000Y-92900001D01*
X143125000Y-92900001D02*
X142875000Y-92900001D01*
X142875000Y-92900001D02*
X142875000Y-92250001D01*
X142875000Y-92250001D02*
X143125000Y-92250001D01*
X143125000Y-92250001D02*
X143125000Y-92900001D01*
G36*
X143125000Y-92900001D02*
G01*
X142875000Y-92900001D01*
X142875000Y-92250001D01*
X143125000Y-92250001D01*
X143125000Y-92900001D01*
G37*
X143125000Y-92900001D02*
X142875000Y-92900001D01*
X142875000Y-92250001D01*
X143125000Y-92250001D01*
X143125000Y-92900001D01*
X144125000Y-92900001D02*
X143875000Y-92900001D01*
X143875000Y-92900001D02*
X143875000Y-92250001D01*
X143875000Y-92250001D02*
X144125000Y-92250001D01*
X144125000Y-92250001D02*
X144125000Y-92900001D01*
G36*
X144125000Y-92900001D02*
G01*
X143875000Y-92900001D01*
X143875000Y-92250001D01*
X144125000Y-92250001D01*
X144125000Y-92900001D01*
G37*
X144125000Y-92900001D02*
X143875000Y-92900001D01*
X143875000Y-92250001D01*
X144125000Y-92250001D01*
X144125000Y-92900001D01*
X145125000Y-92900001D02*
X144875000Y-92900001D01*
X144875000Y-92900001D02*
X144875000Y-92250001D01*
X144875000Y-92250001D02*
X145125000Y-92250001D01*
X145125000Y-92250001D02*
X145125000Y-92900001D01*
G36*
X145125000Y-92900001D02*
G01*
X144875000Y-92900001D01*
X144875000Y-92250001D01*
X145125000Y-92250001D01*
X145125000Y-92900001D01*
G37*
X145125000Y-92900001D02*
X144875000Y-92900001D01*
X144875000Y-92250001D01*
X145125000Y-92250001D01*
X145125000Y-92900001D01*
X142625000Y-92900001D02*
X142375000Y-92900001D01*
X142375000Y-92900001D02*
X142375000Y-92250001D01*
X142375000Y-92250001D02*
X142625000Y-92250001D01*
X142625000Y-92250001D02*
X142625000Y-92900001D01*
G36*
X142625000Y-92900001D02*
G01*
X142375000Y-92900001D01*
X142375000Y-92250001D01*
X142625000Y-92250001D01*
X142625000Y-92900001D01*
G37*
X142625000Y-92900001D02*
X142375000Y-92900001D01*
X142375000Y-92250001D01*
X142625000Y-92250001D01*
X142625000Y-92900001D01*
X136625000Y-92900001D02*
X136375000Y-92900001D01*
X136375000Y-92900001D02*
X136375000Y-92250001D01*
X136375000Y-92250001D02*
X136625000Y-92250001D01*
X136625000Y-92250001D02*
X136625000Y-92900001D01*
G36*
X136625000Y-92900001D02*
G01*
X136375000Y-92900001D01*
X136375000Y-92250001D01*
X136625000Y-92250001D01*
X136625000Y-92900001D01*
G37*
X136625000Y-92900001D02*
X136375000Y-92900001D01*
X136375000Y-92250001D01*
X136625000Y-92250001D01*
X136625000Y-92900001D01*
X145625000Y-92900001D02*
X145375000Y-92900001D01*
X145375000Y-92900001D02*
X145375000Y-92250001D01*
X145375000Y-92250001D02*
X145625000Y-92250001D01*
X145625000Y-92250001D02*
X145625000Y-92900001D01*
G36*
X145625000Y-92900001D02*
G01*
X145375000Y-92900001D01*
X145375000Y-92250001D01*
X145625000Y-92250001D01*
X145625000Y-92900001D01*
G37*
X145625000Y-92900001D02*
X145375000Y-92900001D01*
X145375000Y-92250001D01*
X145625000Y-92250001D01*
X145625000Y-92900001D01*
X147125000Y-92900001D02*
X146875000Y-92900001D01*
X146875000Y-92900001D02*
X146875000Y-92250001D01*
X146875000Y-92250001D02*
X147125000Y-92250001D01*
X147125000Y-92250001D02*
X147125000Y-92900001D01*
G36*
X147125000Y-92900001D02*
G01*
X146875000Y-92900001D01*
X146875000Y-92250001D01*
X147125000Y-92250001D01*
X147125000Y-92900001D01*
G37*
X147125000Y-92900001D02*
X146875000Y-92900001D01*
X146875000Y-92250001D01*
X147125000Y-92250001D01*
X147125000Y-92900001D01*
X136125000Y-92900001D02*
X135875000Y-92900001D01*
X135875000Y-92900001D02*
X135875000Y-92250001D01*
X135875000Y-92250001D02*
X136125000Y-92250001D01*
X136125000Y-92250001D02*
X136125000Y-92900001D01*
G36*
X136125000Y-92900001D02*
G01*
X135875000Y-92900001D01*
X135875000Y-92250001D01*
X136125000Y-92250001D01*
X136125000Y-92900001D01*
G37*
X136125000Y-92900001D02*
X135875000Y-92900001D01*
X135875000Y-92250001D01*
X136125000Y-92250001D01*
X136125000Y-92900001D01*
X144625000Y-92900001D02*
X144375000Y-92900001D01*
X144375000Y-92900001D02*
X144375000Y-92250001D01*
X144375000Y-92250001D02*
X144625000Y-92250001D01*
X144625000Y-92250001D02*
X144625000Y-92900001D01*
G36*
X144625000Y-92900001D02*
G01*
X144375000Y-92900001D01*
X144375000Y-92250001D01*
X144625000Y-92250001D01*
X144625000Y-92900001D01*
G37*
X144625000Y-92900001D02*
X144375000Y-92900001D01*
X144375000Y-92250001D01*
X144625000Y-92250001D01*
X144625000Y-92900001D01*
X139625000Y-92900001D02*
X139375000Y-92900001D01*
X139375000Y-92900001D02*
X139375000Y-92250001D01*
X139375000Y-92250001D02*
X139625000Y-92250001D01*
X139625000Y-92250001D02*
X139625000Y-92900001D01*
G36*
X139625000Y-92900001D02*
G01*
X139375000Y-92900001D01*
X139375000Y-92250001D01*
X139625000Y-92250001D01*
X139625000Y-92900001D01*
G37*
X139625000Y-92900001D02*
X139375000Y-92900001D01*
X139375000Y-92250001D01*
X139625000Y-92250001D01*
X139625000Y-92900001D01*
X140125000Y-92900001D02*
X139875000Y-92900001D01*
X139875000Y-92900001D02*
X139875000Y-92250001D01*
X139875000Y-92250001D02*
X140125000Y-92250001D01*
X140125000Y-92250001D02*
X140125000Y-92900001D01*
G36*
X140125000Y-92900001D02*
G01*
X139875000Y-92900001D01*
X139875000Y-92250001D01*
X140125000Y-92250001D01*
X140125000Y-92900001D01*
G37*
X140125000Y-92900001D02*
X139875000Y-92900001D01*
X139875000Y-92250001D01*
X140125000Y-92250001D01*
X140125000Y-92900001D01*
X141125000Y-92900001D02*
X140875000Y-92900001D01*
X140875000Y-92900001D02*
X140875000Y-92250001D01*
X140875000Y-92250001D02*
X141125000Y-92250001D01*
X141125000Y-92250001D02*
X141125000Y-92900001D01*
G36*
X141125000Y-92900001D02*
G01*
X140875000Y-92900001D01*
X140875000Y-92250001D01*
X141125000Y-92250001D01*
X141125000Y-92900001D01*
G37*
X141125000Y-92900001D02*
X140875000Y-92900001D01*
X140875000Y-92250001D01*
X141125000Y-92250001D01*
X141125000Y-92900001D01*
X137625000Y-92900001D02*
X137375000Y-92900001D01*
X137375000Y-92900001D02*
X137375000Y-92250001D01*
X137375000Y-92250001D02*
X137625000Y-92250001D01*
X137625000Y-92250001D02*
X137625000Y-92900001D01*
G36*
X137625000Y-92900001D02*
G01*
X137375000Y-92900001D01*
X137375000Y-92250001D01*
X137625000Y-92250001D01*
X137625000Y-92900001D01*
G37*
X137625000Y-92900001D02*
X137375000Y-92900001D01*
X137375000Y-92250001D01*
X137625000Y-92250001D01*
X137625000Y-92900001D01*
X135625000Y-92900001D02*
X135375000Y-92900001D01*
X135375000Y-92900001D02*
X135375000Y-92250001D01*
X135375000Y-92250001D02*
X135625000Y-92250001D01*
X135625000Y-92250001D02*
X135625000Y-92900001D01*
G36*
X135625000Y-92900001D02*
G01*
X135375000Y-92900001D01*
X135375000Y-92250001D01*
X135625000Y-92250001D01*
X135625000Y-92900001D01*
G37*
X135625000Y-92900001D02*
X135375000Y-92900001D01*
X135375000Y-92250001D01*
X135625000Y-92250001D01*
X135625000Y-92900001D01*
X137125000Y-92900001D02*
X136875000Y-92900001D01*
X136875000Y-92900001D02*
X136875000Y-92250001D01*
X136875000Y-92250001D02*
X137125000Y-92250001D01*
X137125000Y-92250001D02*
X137125000Y-92900001D01*
G36*
X137125000Y-92900001D02*
G01*
X136875000Y-92900001D01*
X136875000Y-92250001D01*
X137125000Y-92250001D01*
X137125000Y-92900001D01*
G37*
X137125000Y-92900001D02*
X136875000Y-92900001D01*
X136875000Y-92250001D01*
X137125000Y-92250001D01*
X137125000Y-92900001D01*
X138125000Y-92900001D02*
X137875000Y-92900001D01*
X137875000Y-92900001D02*
X137875000Y-92250001D01*
X137875000Y-92250001D02*
X138125000Y-92250001D01*
X138125000Y-92250001D02*
X138125000Y-92900001D01*
G36*
X138125000Y-92900001D02*
G01*
X137875000Y-92900001D01*
X137875000Y-92250001D01*
X138125000Y-92250001D01*
X138125000Y-92900001D01*
G37*
X138125000Y-92900001D02*
X137875000Y-92900001D01*
X137875000Y-92250001D01*
X138125000Y-92250001D01*
X138125000Y-92900001D01*
X139125000Y-92900001D02*
X138875000Y-92900001D01*
X138875000Y-92900001D02*
X138875000Y-92250001D01*
X138875000Y-92250001D02*
X139125000Y-92250001D01*
X139125000Y-92250001D02*
X139125000Y-92900001D01*
G36*
X139125000Y-92900001D02*
G01*
X138875000Y-92900001D01*
X138875000Y-92250001D01*
X139125000Y-92250001D01*
X139125000Y-92900001D01*
G37*
X139125000Y-92900001D02*
X138875000Y-92900001D01*
X138875000Y-92250001D01*
X139125000Y-92250001D01*
X139125000Y-92900001D01*
X138625000Y-92900001D02*
X138375000Y-92900001D01*
X138375000Y-92900001D02*
X138375000Y-92250001D01*
X138375000Y-92250001D02*
X138625000Y-92250001D01*
X138625000Y-92250001D02*
X138625000Y-92900001D01*
G36*
X138625000Y-92900001D02*
G01*
X138375000Y-92900001D01*
X138375000Y-92250001D01*
X138625000Y-92250001D01*
X138625000Y-92900001D01*
G37*
X138625000Y-92900001D02*
X138375000Y-92900001D01*
X138375000Y-92250001D01*
X138625000Y-92250001D01*
X138625000Y-92900001D01*
X142125000Y-92900001D02*
X141875000Y-92900001D01*
X141875000Y-92900001D02*
X141875000Y-92250001D01*
X141875000Y-92250001D02*
X142125000Y-92250001D01*
X142125000Y-92250001D02*
X142125000Y-92900001D01*
G36*
X142125000Y-92900001D02*
G01*
X141875000Y-92900001D01*
X141875000Y-92250001D01*
X142125000Y-92250001D01*
X142125000Y-92900001D01*
G37*
X142125000Y-92900001D02*
X141875000Y-92900001D01*
X141875000Y-92250001D01*
X142125000Y-92250001D01*
X142125000Y-92900001D01*
D11*
X140875000Y-94800001D03*
X139325000Y-94800001D03*
D12*
X126014000Y-92030001D03*
X126814000Y-92030001D03*
X126814000Y-91330001D03*
X126014000Y-91330001D03*
D13*
X127164000Y-90392501D03*
X126664000Y-90392501D03*
X126164000Y-90392501D03*
X125664000Y-90392501D03*
X125664000Y-92967501D03*
X126164000Y-92967501D03*
X126664000Y-92967501D03*
X127164000Y-92967501D03*
D14*
X157100000Y-91350001D03*
X157100000Y-89800001D03*
D15*
X155575000Y-89800001D03*
X155575000Y-91350001D03*
D14*
X142430000Y-96325000D03*
X142430000Y-94775000D03*
D16*
X146780000Y-94680001D03*
X143980000Y-94680001D03*
D15*
X152525000Y-89800001D03*
X152525000Y-91350001D03*
X151000000Y-89800001D03*
X151000000Y-91350001D03*
D17*
X148000000Y-90000001D03*
X134500000Y-90000001D03*
D18*
X133150000Y-92462501D03*
X131250000Y-92462501D03*
X132200000Y-94337501D03*
D16*
X151270000Y-94680001D03*
X148470000Y-94680001D03*
D14*
X154050000Y-91350001D03*
X154050000Y-89800001D03*
D19*
X130775000Y-90600001D03*
X132425000Y-90600001D03*
D14*
X152950000Y-95975000D03*
X152950000Y-94425000D03*
D15*
X128700000Y-90575001D03*
X128700000Y-92125001D03*
X149500000Y-89800001D03*
X149500000Y-91350001D03*
D16*
X134920000Y-96140001D03*
X137720000Y-96140001D03*
D20*
X157425000Y-95075001D03*
X154625000Y-95075001D03*
M02*
