G04 #@! TF.GenerationSoftware,KiCad,Pcbnew,(6.0.0)*
G04 #@! TF.CreationDate,2022-02-19T12:29:41-05:00*
G04 #@! TF.ProjectId,Card_PCB,43617264-5f50-4434-922e-6b696361645f,1.0*
G04 #@! TF.SameCoordinates,Original*
G04 #@! TF.FileFunction,Copper,L2,Bot*
G04 #@! TF.FilePolarity,Positive*
%FSLAX46Y46*%
G04 Gerber Fmt 4.6, Leading zero omitted, Abs format (unit mm)*
G04 Created by KiCad (PCBNEW (6.0.0)) date 2022-02-19 12:29:41*
%MOMM*%
%LPD*%
G01*
G04 APERTURE LIST*
G04 #@! TA.AperFunction,SMDPad,CuDef*
%ADD10R,2.000000X2.000000*%
G04 #@! TD*
G04 #@! TA.AperFunction,ViaPad*
%ADD11C,0.800000*%
G04 #@! TD*
G04 #@! TA.AperFunction,Conductor*
%ADD12C,0.250000*%
G04 #@! TD*
G04 APERTURE END LIST*
D10*
X126160000Y-90664001D03*
X129208000Y-90664001D03*
X123112000Y-95744001D03*
X126160000Y-95744001D03*
X156775000Y-90475001D03*
X135304000Y-90664001D03*
X132256000Y-90664001D03*
X120064000Y-90664001D03*
X156760000Y-95830001D03*
X120064000Y-95744001D03*
D11*
X145400000Y-94450000D03*
X153000000Y-93200000D03*
X131748000Y-96760001D03*
X133500000Y-95900001D03*
X143620000Y-89910001D03*
X129300000Y-96600001D03*
X145200000Y-89900001D03*
X132650000Y-95900001D03*
X145990000Y-89890001D03*
X129300000Y-95700001D03*
X144410000Y-89910001D03*
X128400000Y-96600001D03*
X130200000Y-96600001D03*
X146780000Y-89870001D03*
X124600000Y-93650001D03*
X141400000Y-89902001D03*
X128150000Y-94900001D03*
X142416000Y-89902001D03*
X121080000Y-93712001D03*
X122350000Y-89902001D03*
X140384000Y-89902001D03*
X137336000Y-89902001D03*
X138352000Y-89902001D03*
X139368000Y-89902001D03*
X143950000Y-96400001D03*
X151560000Y-96710001D03*
X147600000Y-96350001D03*
X140000000Y-96000001D03*
X146300000Y-96300001D03*
X141000000Y-96400001D03*
D12*
X145249039Y-94600961D02*
X145400000Y-94450000D01*
X145400000Y-94450000D02*
X145550961Y-94600961D01*
X137415386Y-96760001D02*
X139574426Y-94600961D01*
X139574426Y-94600961D02*
X145249039Y-94600961D01*
X156775000Y-93675001D02*
X156775000Y-95825001D01*
X131748000Y-96760001D02*
X137415386Y-96760001D01*
X153150000Y-93025001D02*
X156125000Y-93025001D01*
X145550961Y-94600961D02*
X151433040Y-94600961D01*
X151433040Y-94600961D02*
X153084000Y-92950001D01*
X156125000Y-93025001D02*
X156775000Y-93675001D01*
X137015631Y-93653521D02*
X123678480Y-93653521D01*
X139243153Y-91426001D02*
X137015631Y-93653521D01*
X123678480Y-93653521D02*
X123112000Y-94220001D01*
X141400000Y-89910615D02*
X139884614Y-91426001D01*
X141400000Y-89902001D02*
X141400000Y-89910615D01*
X139884614Y-91426001D02*
X139243153Y-91426001D01*
X123112000Y-94220001D02*
X123112000Y-95744001D01*
X140451094Y-91875521D02*
X139429350Y-91875521D01*
X126160000Y-94474001D02*
X126160000Y-95744001D01*
X142416000Y-89902001D02*
X142416000Y-89910615D01*
X128150000Y-94900001D02*
X128946961Y-94103040D01*
X126530961Y-94103040D02*
X126160000Y-94474001D01*
X137201831Y-94103040D02*
X129046961Y-94103040D01*
X128946961Y-94103040D02*
X129046961Y-94103040D01*
X139429350Y-91875521D02*
X137201831Y-94103040D01*
X142416000Y-89910615D02*
X140451094Y-91875521D01*
X129046961Y-94103040D02*
X126530961Y-94103040D01*
X121080000Y-93712001D02*
X120064000Y-94728001D01*
X120064000Y-94728001D02*
X120064000Y-95744001D01*
X121588000Y-90664001D02*
X122350000Y-89902001D01*
X120064000Y-90664001D02*
X121588000Y-90664001D01*
X139502896Y-90791719D02*
X139241717Y-90791719D01*
X140384000Y-89902001D02*
X140384000Y-89910615D01*
X139241717Y-90791719D02*
X136946394Y-93087041D01*
X128573000Y-93077001D02*
X126160000Y-90664001D01*
X140384000Y-89910615D02*
X139502896Y-90791719D01*
X128583040Y-93087041D02*
X128573000Y-93077001D01*
X136946394Y-93087041D02*
X128583040Y-93087041D01*
X136066000Y-89902001D02*
X137336000Y-89902001D01*
X135304000Y-90664001D02*
X136066000Y-89902001D01*
X136574000Y-92188001D02*
X133780000Y-92188001D01*
X133780000Y-92188001D02*
X132256000Y-90664001D01*
X138352000Y-90410001D02*
X136574000Y-92188001D01*
X138352000Y-89902001D02*
X138352000Y-90410001D01*
X136760197Y-92637521D02*
X131181520Y-92637521D01*
X139368000Y-89902001D02*
X139368000Y-90029718D01*
X131181520Y-92637521D02*
X129208000Y-90664001D01*
X139368000Y-90029718D02*
X136760197Y-92637521D01*
X151120000Y-97150001D02*
X151560000Y-96710001D01*
X143950000Y-96450001D02*
X144650000Y-97150001D01*
X144650000Y-97150001D02*
X151120000Y-97150001D01*
X147600000Y-96350001D02*
X147600000Y-96300000D01*
X140000000Y-96000001D02*
X140400001Y-95600001D01*
X146500480Y-95200480D02*
X140799522Y-95200480D01*
X140799522Y-95200480D02*
X140400001Y-95600001D01*
X147600000Y-96300000D02*
X146500480Y-95200480D01*
X146300000Y-96300001D02*
X146100001Y-96300001D01*
X142450001Y-95650000D02*
X141700000Y-96400001D01*
X145450000Y-95650000D02*
X142450001Y-95650000D01*
X146100001Y-96300001D02*
X145450000Y-95650000D01*
X141700000Y-96400001D02*
X141000000Y-96400001D01*
G04 #@! TA.AperFunction,Conductor*
G36*
X158038121Y-89174003D02*
G01*
X158084614Y-89227659D01*
X158096000Y-89280001D01*
X158096000Y-94512695D01*
X158075998Y-94580816D01*
X158022342Y-94627309D01*
X157952068Y-94637413D01*
X157899998Y-94617460D01*
X157869620Y-94597162D01*
X157859301Y-94590267D01*
X157785067Y-94575501D01*
X157280500Y-94575501D01*
X157212379Y-94555499D01*
X157165886Y-94501843D01*
X157154500Y-94449501D01*
X157154500Y-93728921D01*
X157157049Y-93704973D01*
X157157128Y-93703308D01*
X157159320Y-93693125D01*
X157155373Y-93659778D01*
X157155023Y-93653847D01*
X157154928Y-93653855D01*
X157154500Y-93648677D01*
X157154500Y-93643477D01*
X157153646Y-93638345D01*
X157151331Y-93624436D01*
X157150494Y-93618558D01*
X157145694Y-93578000D01*
X157145694Y-93577999D01*
X157144470Y-93567660D01*
X157140507Y-93559408D01*
X157139004Y-93550375D01*
X157124665Y-93523799D01*
X157114666Y-93505269D01*
X157111969Y-93499976D01*
X157093213Y-93460914D01*
X157093209Y-93460908D01*
X157089781Y-93453769D01*
X157086187Y-93449493D01*
X157084248Y-93447554D01*
X157082492Y-93445639D01*
X157082445Y-93445553D01*
X157082567Y-93445440D01*
X157082095Y-93444905D01*
X157079010Y-93439187D01*
X157066649Y-93427760D01*
X157039439Y-93402608D01*
X157035873Y-93399179D01*
X156734219Y-93097525D01*
X156431476Y-92794783D01*
X156416339Y-92776040D01*
X156415221Y-92774811D01*
X156409571Y-92766061D01*
X156401393Y-92759614D01*
X156401391Y-92759612D01*
X156383200Y-92745272D01*
X156378759Y-92741326D01*
X156378697Y-92741399D01*
X156374733Y-92738040D01*
X156371056Y-92734363D01*
X156355308Y-92723109D01*
X156350638Y-92719603D01*
X156310353Y-92687845D01*
X156301719Y-92684813D01*
X156294266Y-92679487D01*
X156245150Y-92664798D01*
X156239508Y-92662965D01*
X156198633Y-92648611D01*
X156198632Y-92648611D01*
X156191149Y-92645983D01*
X156185584Y-92645501D01*
X156182876Y-92645501D01*
X156180242Y-92645387D01*
X156180144Y-92645358D01*
X156180151Y-92645194D01*
X156179447Y-92645150D01*
X156173222Y-92643288D01*
X156119365Y-92645404D01*
X156114418Y-92645501D01*
X153382813Y-92645501D01*
X153323857Y-92630857D01*
X153236274Y-92584484D01*
X153082633Y-92545892D01*
X153075034Y-92545852D01*
X153075033Y-92545852D01*
X153009181Y-92545507D01*
X152924221Y-92545062D01*
X152916841Y-92546834D01*
X152916839Y-92546834D01*
X152777563Y-92580271D01*
X152777560Y-92580272D01*
X152770184Y-92582043D01*
X152629414Y-92654700D01*
X152510039Y-92758838D01*
X152418950Y-92888444D01*
X152361406Y-93036037D01*
X152360414Y-93043570D01*
X152360414Y-93043571D01*
X152351848Y-93108637D01*
X152323126Y-93173565D01*
X152316021Y-93181286D01*
X151312751Y-94184556D01*
X151250439Y-94218582D01*
X151223656Y-94221461D01*
X146099769Y-94221461D01*
X146031648Y-94201459D01*
X145988108Y-94153837D01*
X145986964Y-94151648D01*
X145984280Y-94144546D01*
X145943988Y-94085920D01*
X145898855Y-94020251D01*
X145898854Y-94020249D01*
X145894553Y-94013992D01*
X145776275Y-93908611D01*
X145768889Y-93904700D01*
X145642988Y-93838039D01*
X145642989Y-93838039D01*
X145636274Y-93834484D01*
X145482633Y-93795892D01*
X145475034Y-93795852D01*
X145475033Y-93795852D01*
X145409181Y-93795507D01*
X145324221Y-93795062D01*
X145316841Y-93796834D01*
X145316839Y-93796834D01*
X145177563Y-93830271D01*
X145177560Y-93830272D01*
X145170184Y-93832043D01*
X145029414Y-93904700D01*
X144910039Y-94008838D01*
X144818950Y-94138444D01*
X144816189Y-94145525D01*
X144812602Y-94152215D01*
X144810329Y-94150996D01*
X144774470Y-94197441D01*
X144700470Y-94221461D01*
X139628351Y-94221461D01*
X139604393Y-94218911D01*
X139602734Y-94218833D01*
X139592550Y-94216640D01*
X139582208Y-94217864D01*
X139582205Y-94217864D01*
X139559205Y-94220587D01*
X139553274Y-94220937D01*
X139553282Y-94221033D01*
X139548106Y-94221461D01*
X139542902Y-94221461D01*
X139523838Y-94224634D01*
X139517992Y-94225465D01*
X139506543Y-94226820D01*
X139467085Y-94231491D01*
X139458833Y-94235454D01*
X139449800Y-94236957D01*
X139440631Y-94241904D01*
X139440629Y-94241905D01*
X139404694Y-94261295D01*
X139399401Y-94263992D01*
X139377714Y-94274406D01*
X139353194Y-94286180D01*
X139348919Y-94289774D01*
X139346994Y-94291699D01*
X139345064Y-94293470D01*
X139344979Y-94293516D01*
X139344867Y-94293393D01*
X139344332Y-94293865D01*
X139338612Y-94296951D01*
X139331545Y-94304596D01*
X139302010Y-94336547D01*
X139298580Y-94340113D01*
X137295097Y-96343596D01*
X137232785Y-96377622D01*
X137206002Y-96380501D01*
X132347682Y-96380501D01*
X132279561Y-96360499D01*
X132253114Y-96334861D01*
X132251878Y-96335950D01*
X132246855Y-96330252D01*
X132242553Y-96323993D01*
X132124275Y-96218612D01*
X132116889Y-96214701D01*
X132061987Y-96185632D01*
X131984274Y-96144485D01*
X131830633Y-96105893D01*
X131823034Y-96105853D01*
X131823033Y-96105853D01*
X131757181Y-96105508D01*
X131672221Y-96105063D01*
X131664841Y-96106835D01*
X131664839Y-96106835D01*
X131525563Y-96140272D01*
X131525560Y-96140273D01*
X131518184Y-96142044D01*
X131377414Y-96214701D01*
X131258039Y-96318839D01*
X131166950Y-96448445D01*
X131164190Y-96455525D01*
X131131661Y-96538958D01*
X131109406Y-96596038D01*
X131108414Y-96603571D01*
X131108414Y-96603572D01*
X131091664Y-96730806D01*
X131088729Y-96753097D01*
X131096612Y-96824501D01*
X131103590Y-96887699D01*
X131106113Y-96910554D01*
X131108723Y-96917685D01*
X131108723Y-96917687D01*
X131130319Y-96976700D01*
X131134945Y-97047546D01*
X131100535Y-97109646D01*
X131038014Y-97143285D01*
X131011993Y-97146001D01*
X127425735Y-97146001D01*
X127357614Y-97125999D01*
X127311121Y-97072343D01*
X127301017Y-97002069D01*
X127330511Y-96937489D01*
X127333802Y-96933955D01*
X127343484Y-96927485D01*
X127399734Y-96843302D01*
X127414500Y-96769068D01*
X127414499Y-95392410D01*
X127434501Y-95324290D01*
X127488157Y-95277797D01*
X127558431Y-95267693D01*
X127623011Y-95297186D01*
X127645079Y-95322132D01*
X127646670Y-95324500D01*
X127646672Y-95324503D01*
X127650908Y-95330806D01*
X127656527Y-95335919D01*
X127656528Y-95335920D01*
X127667903Y-95346270D01*
X127768076Y-95437420D01*
X127907293Y-95513009D01*
X128060522Y-95553208D01*
X128144477Y-95554527D01*
X128211319Y-95555577D01*
X128211322Y-95555577D01*
X128218916Y-95555696D01*
X128373332Y-95520330D01*
X128443742Y-95484918D01*
X128508072Y-95452564D01*
X128508075Y-95452562D01*
X128514855Y-95449152D01*
X128520626Y-95444223D01*
X128520629Y-95444221D01*
X128629536Y-95351205D01*
X128629536Y-95351204D01*
X128635314Y-95346270D01*
X128727755Y-95217625D01*
X128786842Y-95070642D01*
X128798990Y-94985281D01*
X128808581Y-94917892D01*
X128808581Y-94917889D01*
X128809162Y-94913808D01*
X128809307Y-94900001D01*
X128803437Y-94851497D01*
X128815109Y-94781469D01*
X128839429Y-94747266D01*
X129067250Y-94519445D01*
X129129562Y-94485419D01*
X129156345Y-94482540D01*
X137147911Y-94482540D01*
X137171859Y-94485089D01*
X137173524Y-94485168D01*
X137183707Y-94487360D01*
X137194048Y-94486136D01*
X137217054Y-94483413D01*
X137222985Y-94483063D01*
X137222977Y-94482968D01*
X137228155Y-94482540D01*
X137233355Y-94482540D01*
X137238484Y-94481686D01*
X137238487Y-94481686D01*
X137252396Y-94479371D01*
X137258274Y-94478534D01*
X137298832Y-94473734D01*
X137298833Y-94473734D01*
X137309172Y-94472510D01*
X137317424Y-94468547D01*
X137326457Y-94467044D01*
X137335626Y-94462097D01*
X137335628Y-94462096D01*
X137371563Y-94442706D01*
X137376856Y-94440009D01*
X137415913Y-94421255D01*
X137415917Y-94421252D01*
X137423063Y-94417821D01*
X137427339Y-94414226D01*
X137429262Y-94412303D01*
X137431194Y-94410531D01*
X137431273Y-94410488D01*
X137431386Y-94410612D01*
X137431926Y-94410136D01*
X137437645Y-94407050D01*
X137474248Y-94367453D01*
X137477677Y-94363888D01*
X139549639Y-92291926D01*
X139611951Y-92257900D01*
X139638734Y-92255021D01*
X140397174Y-92255021D01*
X140421122Y-92257570D01*
X140422787Y-92257649D01*
X140432970Y-92259841D01*
X140443311Y-92258617D01*
X140448347Y-92258021D01*
X140466317Y-92255894D01*
X140472248Y-92255544D01*
X140472240Y-92255449D01*
X140477418Y-92255021D01*
X140482618Y-92255021D01*
X140487747Y-92254167D01*
X140487750Y-92254167D01*
X140501659Y-92251852D01*
X140507537Y-92251015D01*
X140548095Y-92246215D01*
X140548096Y-92246215D01*
X140558435Y-92244991D01*
X140566687Y-92241028D01*
X140575720Y-92239525D01*
X140584889Y-92234578D01*
X140584891Y-92234577D01*
X140620826Y-92215187D01*
X140626119Y-92212490D01*
X140665176Y-92193736D01*
X140665180Y-92193733D01*
X140672326Y-92190302D01*
X140676602Y-92186707D01*
X140678525Y-92184784D01*
X140680457Y-92183012D01*
X140680536Y-92182969D01*
X140680649Y-92183093D01*
X140681189Y-92182617D01*
X140686908Y-92179531D01*
X140723511Y-92139934D01*
X140726940Y-92136369D01*
X142270659Y-90592650D01*
X142332971Y-90558624D01*
X142361732Y-90555761D01*
X142384813Y-90556124D01*
X142477319Y-90557577D01*
X142477322Y-90557577D01*
X142484916Y-90557696D01*
X142639332Y-90522330D01*
X142709742Y-90486918D01*
X142774072Y-90454564D01*
X142774075Y-90454562D01*
X142780855Y-90451152D01*
X142786626Y-90446223D01*
X142786629Y-90446221D01*
X142895536Y-90353205D01*
X142895536Y-90353204D01*
X142901314Y-90348270D01*
X142993755Y-90219625D01*
X143052842Y-90072642D01*
X143075162Y-89915808D01*
X143075307Y-89902001D01*
X143056276Y-89744734D01*
X143000280Y-89596547D01*
X142986760Y-89576875D01*
X142914855Y-89472252D01*
X142914854Y-89472250D01*
X142910553Y-89465993D01*
X142807389Y-89374078D01*
X142769834Y-89313828D01*
X142770813Y-89242838D01*
X142810017Y-89183647D01*
X142874999Y-89155048D01*
X142891208Y-89154001D01*
X157970000Y-89154001D01*
X158038121Y-89174003D01*
G37*
G04 #@! TD.AperFunction*
G04 #@! TA.AperFunction,Conductor*
G36*
X158038121Y-89174003D02*
G01*
X158084614Y-89227659D01*
X158096000Y-89280001D01*
X158096000Y-94512695D01*
X158075998Y-94580816D01*
X158022342Y-94627309D01*
X157952068Y-94637413D01*
X157899998Y-94617460D01*
X157869620Y-94597162D01*
X157859301Y-94590267D01*
X157785067Y-94575501D01*
X157280500Y-94575501D01*
X157212379Y-94555499D01*
X157165886Y-94501843D01*
X157154500Y-94449501D01*
X157154500Y-93728921D01*
X157157049Y-93704973D01*
X157157128Y-93703308D01*
X157159320Y-93693125D01*
X157155373Y-93659778D01*
X157155023Y-93653847D01*
X157154928Y-93653855D01*
X157154500Y-93648677D01*
X157154500Y-93643477D01*
X157153646Y-93638345D01*
X157151331Y-93624436D01*
X157150494Y-93618558D01*
X157145694Y-93578000D01*
X157145694Y-93577999D01*
X157144470Y-93567660D01*
X157140507Y-93559408D01*
X157139004Y-93550375D01*
X157124665Y-93523799D01*
X157114666Y-93505269D01*
X157111969Y-93499976D01*
X157093213Y-93460914D01*
X157093209Y-93460908D01*
X157089781Y-93453769D01*
X157086187Y-93449493D01*
X157084248Y-93447554D01*
X157082492Y-93445639D01*
X157082445Y-93445553D01*
X157082567Y-93445440D01*
X157082095Y-93444905D01*
X157079010Y-93439187D01*
X157066649Y-93427760D01*
X157039439Y-93402608D01*
X157035873Y-93399179D01*
X156734219Y-93097525D01*
X156431476Y-92794783D01*
X156416339Y-92776040D01*
X156415221Y-92774811D01*
X156409571Y-92766061D01*
X156401393Y-92759614D01*
X156401391Y-92759612D01*
X156383200Y-92745272D01*
X156378759Y-92741326D01*
X156378697Y-92741399D01*
X156374733Y-92738040D01*
X156371056Y-92734363D01*
X156355308Y-92723109D01*
X156350638Y-92719603D01*
X156310353Y-92687845D01*
X156301719Y-92684813D01*
X156294266Y-92679487D01*
X156245150Y-92664798D01*
X156239508Y-92662965D01*
X156198633Y-92648611D01*
X156198632Y-92648611D01*
X156191149Y-92645983D01*
X156185584Y-92645501D01*
X156182876Y-92645501D01*
X156180242Y-92645387D01*
X156180144Y-92645358D01*
X156180151Y-92645194D01*
X156179447Y-92645150D01*
X156173222Y-92643288D01*
X156119365Y-92645404D01*
X156114418Y-92645501D01*
X153382813Y-92645501D01*
X153323857Y-92630857D01*
X153236274Y-92584484D01*
X153082633Y-92545892D01*
X153075034Y-92545852D01*
X153075033Y-92545852D01*
X153009181Y-92545507D01*
X152924221Y-92545062D01*
X152916841Y-92546834D01*
X152916839Y-92546834D01*
X152777563Y-92580271D01*
X152777560Y-92580272D01*
X152770184Y-92582043D01*
X152629414Y-92654700D01*
X152510039Y-92758838D01*
X152418950Y-92888444D01*
X152361406Y-93036037D01*
X152360414Y-93043570D01*
X152360414Y-93043571D01*
X152351848Y-93108637D01*
X152323126Y-93173565D01*
X152316021Y-93181286D01*
X151312751Y-94184556D01*
X151250439Y-94218582D01*
X151223656Y-94221461D01*
X146099769Y-94221461D01*
X146031648Y-94201459D01*
X145988108Y-94153837D01*
X145986964Y-94151648D01*
X145984280Y-94144546D01*
X145943988Y-94085920D01*
X145898855Y-94020251D01*
X145898854Y-94020249D01*
X145894553Y-94013992D01*
X145776275Y-93908611D01*
X145768889Y-93904700D01*
X145642988Y-93838039D01*
X145642989Y-93838039D01*
X145636274Y-93834484D01*
X145482633Y-93795892D01*
X145475034Y-93795852D01*
X145475033Y-93795852D01*
X145409181Y-93795507D01*
X145324221Y-93795062D01*
X145316841Y-93796834D01*
X145316839Y-93796834D01*
X145177563Y-93830271D01*
X145177560Y-93830272D01*
X145170184Y-93832043D01*
X145029414Y-93904700D01*
X144910039Y-94008838D01*
X144818950Y-94138444D01*
X144816189Y-94145525D01*
X144812602Y-94152215D01*
X144810329Y-94150996D01*
X144774470Y-94197441D01*
X144700470Y-94221461D01*
X139628351Y-94221461D01*
X139604393Y-94218911D01*
X139602734Y-94218833D01*
X139592550Y-94216640D01*
X139582208Y-94217864D01*
X139582205Y-94217864D01*
X139559205Y-94220587D01*
X139553274Y-94220937D01*
X139553282Y-94221033D01*
X139548106Y-94221461D01*
X139542902Y-94221461D01*
X139523838Y-94224634D01*
X139517992Y-94225465D01*
X139506543Y-94226820D01*
X139467085Y-94231491D01*
X139458833Y-94235454D01*
X139449800Y-94236957D01*
X139440631Y-94241904D01*
X139440629Y-94241905D01*
X139404694Y-94261295D01*
X139399401Y-94263992D01*
X139377714Y-94274406D01*
X139353194Y-94286180D01*
X139348919Y-94289774D01*
X139346994Y-94291699D01*
X139345064Y-94293470D01*
X139344979Y-94293516D01*
X139344867Y-94293393D01*
X139344332Y-94293865D01*
X139338612Y-94296951D01*
X139331545Y-94304596D01*
X139302010Y-94336547D01*
X139298580Y-94340113D01*
X137295097Y-96343596D01*
X137232785Y-96377622D01*
X137206002Y-96380501D01*
X132347682Y-96380501D01*
X132279561Y-96360499D01*
X132253114Y-96334861D01*
X132251878Y-96335950D01*
X132246855Y-96330252D01*
X132242553Y-96323993D01*
X132124275Y-96218612D01*
X132116889Y-96214701D01*
X132061987Y-96185632D01*
X131984274Y-96144485D01*
X131830633Y-96105893D01*
X131823034Y-96105853D01*
X131823033Y-96105853D01*
X131757181Y-96105508D01*
X131672221Y-96105063D01*
X131664841Y-96106835D01*
X131664839Y-96106835D01*
X131525563Y-96140272D01*
X131525560Y-96140273D01*
X131518184Y-96142044D01*
X131377414Y-96214701D01*
X131258039Y-96318839D01*
X131166950Y-96448445D01*
X131164190Y-96455525D01*
X131131661Y-96538958D01*
X131109406Y-96596038D01*
X131108414Y-96603571D01*
X131108414Y-96603572D01*
X131091664Y-96730806D01*
X131088729Y-96753097D01*
X131096612Y-96824501D01*
X131103590Y-96887699D01*
X131106113Y-96910554D01*
X131108723Y-96917685D01*
X131108723Y-96917687D01*
X131130319Y-96976700D01*
X131134945Y-97047546D01*
X131100535Y-97109646D01*
X131038014Y-97143285D01*
X131011993Y-97146001D01*
X127425735Y-97146001D01*
X127357614Y-97125999D01*
X127311121Y-97072343D01*
X127301017Y-97002069D01*
X127330511Y-96937489D01*
X127333802Y-96933955D01*
X127343484Y-96927485D01*
X127399734Y-96843302D01*
X127414500Y-96769068D01*
X127414499Y-95392410D01*
X127434501Y-95324290D01*
X127488157Y-95277797D01*
X127558431Y-95267693D01*
X127623011Y-95297186D01*
X127645079Y-95322132D01*
X127646670Y-95324500D01*
X127646672Y-95324503D01*
X127650908Y-95330806D01*
X127656527Y-95335919D01*
X127656528Y-95335920D01*
X127667903Y-95346270D01*
X127768076Y-95437420D01*
X127907293Y-95513009D01*
X128060522Y-95553208D01*
X128144477Y-95554527D01*
X128211319Y-95555577D01*
X128211322Y-95555577D01*
X128218916Y-95555696D01*
X128373332Y-95520330D01*
X128443742Y-95484918D01*
X128508072Y-95452564D01*
X128508075Y-95452562D01*
X128514855Y-95449152D01*
X128520626Y-95444223D01*
X128520629Y-95444221D01*
X128629536Y-95351205D01*
X128629536Y-95351204D01*
X128635314Y-95346270D01*
X128727755Y-95217625D01*
X128786842Y-95070642D01*
X128798990Y-94985281D01*
X128808581Y-94917892D01*
X128808581Y-94917889D01*
X128809162Y-94913808D01*
X128809307Y-94900001D01*
X128803437Y-94851497D01*
X128815109Y-94781469D01*
X128839429Y-94747266D01*
X129067250Y-94519445D01*
X129129562Y-94485419D01*
X129156345Y-94482540D01*
X137147911Y-94482540D01*
X137171859Y-94485089D01*
X137173524Y-94485168D01*
X137183707Y-94487360D01*
X137194048Y-94486136D01*
X137217054Y-94483413D01*
X137222985Y-94483063D01*
X137222977Y-94482968D01*
X137228155Y-94482540D01*
X137233355Y-94482540D01*
X137238484Y-94481686D01*
X137238487Y-94481686D01*
X137252396Y-94479371D01*
X137258274Y-94478534D01*
X137298832Y-94473734D01*
X137298833Y-94473734D01*
X137309172Y-94472510D01*
X137317424Y-94468547D01*
X137326457Y-94467044D01*
X137335626Y-94462097D01*
X137335628Y-94462096D01*
X137371563Y-94442706D01*
X137376856Y-94440009D01*
X137415913Y-94421255D01*
X137415917Y-94421252D01*
X137423063Y-94417821D01*
X137427339Y-94414226D01*
X137429262Y-94412303D01*
X137431194Y-94410531D01*
X137431273Y-94410488D01*
X137431386Y-94410612D01*
X137431926Y-94410136D01*
X137437645Y-94407050D01*
X137474248Y-94367453D01*
X137477677Y-94363888D01*
X139549639Y-92291926D01*
X139611951Y-92257900D01*
X139638734Y-92255021D01*
X140397174Y-92255021D01*
X140421122Y-92257570D01*
X140422787Y-92257649D01*
X140432970Y-92259841D01*
X140443311Y-92258617D01*
X140448347Y-92258021D01*
X140466317Y-92255894D01*
X140472248Y-92255544D01*
X140472240Y-92255449D01*
X140477418Y-92255021D01*
X140482618Y-92255021D01*
X140487747Y-92254167D01*
X140487750Y-92254167D01*
X140501659Y-92251852D01*
X140507537Y-92251015D01*
X140548095Y-92246215D01*
X140548096Y-92246215D01*
X140558435Y-92244991D01*
X140566687Y-92241028D01*
X140575720Y-92239525D01*
X140584889Y-92234578D01*
X140584891Y-92234577D01*
X140620826Y-92215187D01*
X140626119Y-92212490D01*
X140665176Y-92193736D01*
X140665180Y-92193733D01*
X140672326Y-92190302D01*
X140676602Y-92186707D01*
X140678525Y-92184784D01*
X140680457Y-92183012D01*
X140680536Y-92182969D01*
X140680649Y-92183093D01*
X140681189Y-92182617D01*
X140686908Y-92179531D01*
X140723511Y-92139934D01*
X140726940Y-92136369D01*
X142270659Y-90592650D01*
X142332971Y-90558624D01*
X142361732Y-90555761D01*
X142384813Y-90556124D01*
X142477319Y-90557577D01*
X142477322Y-90557577D01*
X142484916Y-90557696D01*
X142639332Y-90522330D01*
X142709742Y-90486918D01*
X142774072Y-90454564D01*
X142774075Y-90454562D01*
X142780855Y-90451152D01*
X142786626Y-90446223D01*
X142786629Y-90446221D01*
X142895536Y-90353205D01*
X142895536Y-90353204D01*
X142901314Y-90348270D01*
X142993755Y-90219625D01*
X143052842Y-90072642D01*
X143075162Y-89915808D01*
X143075307Y-89902001D01*
X143056276Y-89744734D01*
X143000280Y-89596547D01*
X142986760Y-89576875D01*
X142914855Y-89472252D01*
X142914854Y-89472250D01*
X142910553Y-89465993D01*
X142807389Y-89374078D01*
X142769834Y-89313828D01*
X142770813Y-89242838D01*
X142810017Y-89183647D01*
X142874999Y-89155048D01*
X142891208Y-89154001D01*
X157970000Y-89154001D01*
X158038121Y-89174003D01*
G37*
G04 #@! TD.AperFunction*
M02*
