G04 #@! TF.GenerationSoftware,KiCad,Pcbnew,(6.0.0)*
G04 #@! TF.CreationDate,2022-02-19T12:29:41-05:00*
G04 #@! TF.ProjectId,Card_PCB,43617264-5f50-4434-922e-6b696361645f,1.0*
G04 #@! TF.SameCoordinates,Original*
G04 #@! TF.FileFunction,Soldermask,Top*
G04 #@! TF.FilePolarity,Negative*
%FSLAX46Y46*%
G04 Gerber Fmt 4.6, Leading zero omitted, Abs format (unit mm)*
G04 Created by KiCad (PCBNEW (6.0.0)) date 2022-02-19 12:29:41*
%MOMM*%
%LPD*%
G01*
G04 APERTURE LIST*
G04 Aperture macros list*
%AMRoundRect*
0 Rectangle with rounded corners*
0 $1 Rounding radius*
0 $2 $3 $4 $5 $6 $7 $8 $9 X,Y pos of 4 corners*
0 Add a 4 corners polygon primitive as box body*
4,1,4,$2,$3,$4,$5,$6,$7,$8,$9,$2,$3,0*
0 Add four circle primitives for the rounded corners*
1,1,$1+$1,$2,$3*
1,1,$1+$1,$4,$5*
1,1,$1+$1,$6,$7*
1,1,$1+$1,$8,$9*
0 Add four rect primitives between the rounded corners*
20,1,$1+$1,$2,$3,$4,$5,0*
20,1,$1+$1,$4,$5,$6,$7,0*
20,1,$1+$1,$6,$7,$8,$9,0*
20,1,$1+$1,$8,$9,$2,$3,0*%
G04 Aperture macros list end*
%ADD10RoundRect,0.225000X0.225000X0.250000X-0.225000X0.250000X-0.225000X-0.250000X0.225000X-0.250000X0*%
%ADD11RoundRect,0.087500X-0.087500X0.175000X-0.087500X-0.175000X0.087500X-0.175000X0.087500X0.175000X0*%
%ADD12R,1.600000X1.400000*%
%ADD13RoundRect,0.225000X0.250000X-0.225000X0.250000X0.225000X-0.250000X0.225000X-0.250000X-0.225000X0*%
%ADD14RoundRect,0.225000X-0.250000X0.225000X-0.250000X-0.225000X0.250000X-0.225000X0.250000X0.225000X0*%
%ADD15R,1.100000X1.100000*%
%ADD16R,0.300000X0.800000*%
%ADD17R,0.400000X0.800000*%
%ADD18RoundRect,0.150000X-0.150000X0.587500X-0.150000X-0.587500X0.150000X-0.587500X0.150000X0.587500X0*%
%ADD19RoundRect,0.200000X-0.200000X-0.275000X0.200000X-0.275000X0.200000X0.275000X-0.200000X0.275000X0*%
%ADD20R,1.200000X3.700000*%
G04 APERTURE END LIST*
D10*
X140875000Y-94800001D03*
X139325000Y-94800001D03*
D11*
X127164000Y-90392501D03*
X126664000Y-90392501D03*
X126164000Y-90392501D03*
X125664000Y-90392501D03*
X125664000Y-92967501D03*
X126164000Y-92967501D03*
X126664000Y-92967501D03*
X127164000Y-92967501D03*
D12*
X126414000Y-91680001D03*
D13*
X157100000Y-91350001D03*
X157100000Y-89800001D03*
D14*
X155575000Y-89800001D03*
X155575000Y-91350001D03*
D13*
X142430000Y-96325000D03*
X142430000Y-94775000D03*
D15*
X146780000Y-94680001D03*
X143980000Y-94680001D03*
D14*
X152525000Y-89800001D03*
X152525000Y-91350001D03*
X151000000Y-89800001D03*
X151000000Y-91350001D03*
D16*
X135500000Y-92500001D03*
X136000000Y-92500001D03*
X136500000Y-92500001D03*
X137000000Y-92500001D03*
X137500000Y-92500001D03*
X138000000Y-92500001D03*
X138500000Y-92500001D03*
X139000000Y-92500001D03*
X139500000Y-92500001D03*
X140000000Y-92500001D03*
X140500000Y-92500001D03*
X141000000Y-92500001D03*
X141500000Y-92500001D03*
X142000000Y-92500001D03*
X142500000Y-92500001D03*
X143000000Y-92500001D03*
X143500000Y-92500001D03*
X144000000Y-92500001D03*
X144500000Y-92500001D03*
X145000000Y-92500001D03*
X145500000Y-92500001D03*
X146000000Y-92500001D03*
X146500000Y-92500001D03*
X147000000Y-92500001D03*
D17*
X148000000Y-90000001D03*
X134500000Y-90000001D03*
D18*
X133150000Y-92462501D03*
X131250000Y-92462501D03*
X132200000Y-94337501D03*
D15*
X151270000Y-94680001D03*
X148470000Y-94680001D03*
D13*
X154050000Y-91350001D03*
X154050000Y-89800001D03*
D19*
X130775000Y-90600001D03*
X132425000Y-90600001D03*
D13*
X152950000Y-95975000D03*
X152950000Y-94425000D03*
D14*
X128700000Y-90575001D03*
X128700000Y-92125001D03*
X149500000Y-89800001D03*
X149500000Y-91350001D03*
D15*
X134920000Y-96140001D03*
X137720000Y-96140001D03*
D20*
X157425000Y-95075001D03*
X154625000Y-95075001D03*
M02*
