G04 #@! TF.GenerationSoftware,KiCad,Pcbnew,(6.0.0)*
G04 #@! TF.CreationDate,2022-01-28T15:44:58-05:00*
G04 #@! TF.ProjectId,Card_PCB,43617264-5f50-4434-922e-6b696361645f,1.0*
G04 #@! TF.SameCoordinates,Original*
G04 #@! TF.FileFunction,Legend,Top*
G04 #@! TF.FilePolarity,Positive*
%FSLAX46Y46*%
G04 Gerber Fmt 4.6, Leading zero omitted, Abs format (unit mm)*
G04 Created by KiCad (PCBNEW (6.0.0)) date 2022-01-28 15:44:58*
%MOMM*%
%LPD*%
G01*
G04 APERTURE LIST*
%ADD10C,0.150000*%
%ADD11C,0.125000*%
%ADD12C,0.120000*%
%ADD13C,0.127000*%
%ADD14C,0.200000*%
G04 APERTURE END LIST*
D10*
X127941421Y-89600001D02*
G75*
G03*
X127941421Y-89600001I-141421J0D01*
G01*
D11*
X138016666Y-94628572D02*
X137992857Y-94652381D01*
X137921428Y-94676191D01*
X137873809Y-94676191D01*
X137802380Y-94652381D01*
X137754761Y-94604762D01*
X137730952Y-94557143D01*
X137707142Y-94461905D01*
X137707142Y-94390477D01*
X137730952Y-94295239D01*
X137754761Y-94247620D01*
X137802380Y-94200001D01*
X137873809Y-94176191D01*
X137921428Y-94176191D01*
X137992857Y-94200001D01*
X138016666Y-94223810D01*
X138445238Y-94176191D02*
X138350000Y-94176191D01*
X138302380Y-94200001D01*
X138278571Y-94223810D01*
X138230952Y-94295239D01*
X138207142Y-94390477D01*
X138207142Y-94580953D01*
X138230952Y-94628572D01*
X138254761Y-94652381D01*
X138302380Y-94676191D01*
X138397619Y-94676191D01*
X138445238Y-94652381D01*
X138469047Y-94628572D01*
X138492857Y-94580953D01*
X138492857Y-94461905D01*
X138469047Y-94414286D01*
X138445238Y-94390477D01*
X138397619Y-94366667D01*
X138302380Y-94366667D01*
X138254761Y-94390477D01*
X138230952Y-94414286D01*
X138207142Y-94461905D01*
X124540190Y-92060953D02*
X124944952Y-92060953D01*
X124992571Y-92037143D01*
X125016380Y-92013334D01*
X125040190Y-91965715D01*
X125040190Y-91870477D01*
X125016380Y-91822858D01*
X124992571Y-91799048D01*
X124944952Y-91775239D01*
X124540190Y-91775239D01*
X125040190Y-91275239D02*
X125040190Y-91560953D01*
X125040190Y-91418096D02*
X124540190Y-91418096D01*
X124611619Y-91465715D01*
X124659238Y-91513334D01*
X124683047Y-91560953D01*
X156991666Y-92603572D02*
X156967857Y-92627381D01*
X156896428Y-92651191D01*
X156848809Y-92651191D01*
X156777380Y-92627381D01*
X156729761Y-92579762D01*
X156705952Y-92532143D01*
X156682142Y-92436905D01*
X156682142Y-92365477D01*
X156705952Y-92270239D01*
X156729761Y-92222620D01*
X156777380Y-92175001D01*
X156848809Y-92151191D01*
X156896428Y-92151191D01*
X156967857Y-92175001D01*
X156991666Y-92198810D01*
X157158333Y-92151191D02*
X157467857Y-92151191D01*
X157301190Y-92341667D01*
X157372619Y-92341667D01*
X157420238Y-92365477D01*
X157444047Y-92389286D01*
X157467857Y-92436905D01*
X157467857Y-92555953D01*
X157444047Y-92603572D01*
X157420238Y-92627381D01*
X157372619Y-92651191D01*
X157229761Y-92651191D01*
X157182142Y-92627381D01*
X157158333Y-92603572D01*
X155441666Y-92603572D02*
X155417857Y-92627381D01*
X155346428Y-92651191D01*
X155298809Y-92651191D01*
X155227380Y-92627381D01*
X155179761Y-92579762D01*
X155155952Y-92532143D01*
X155132142Y-92436905D01*
X155132142Y-92365477D01*
X155155952Y-92270239D01*
X155179761Y-92222620D01*
X155227380Y-92175001D01*
X155298809Y-92151191D01*
X155346428Y-92151191D01*
X155417857Y-92175001D01*
X155441666Y-92198810D01*
X155632142Y-92198810D02*
X155655952Y-92175001D01*
X155703571Y-92151191D01*
X155822619Y-92151191D01*
X155870238Y-92175001D01*
X155894047Y-92198810D01*
X155917857Y-92246429D01*
X155917857Y-92294048D01*
X155894047Y-92365477D01*
X155608333Y-92651191D01*
X155917857Y-92651191D01*
X141066666Y-96028571D02*
X141042857Y-96052380D01*
X140971428Y-96076190D01*
X140923809Y-96076190D01*
X140852380Y-96052380D01*
X140804761Y-96004761D01*
X140780952Y-95957142D01*
X140757142Y-95861904D01*
X140757142Y-95790476D01*
X140780952Y-95695238D01*
X140804761Y-95647619D01*
X140852380Y-95600000D01*
X140923809Y-95576190D01*
X140971428Y-95576190D01*
X141042857Y-95600000D01*
X141066666Y-95623809D01*
X141519047Y-95576190D02*
X141280952Y-95576190D01*
X141257142Y-95814285D01*
X141280952Y-95790476D01*
X141328571Y-95766666D01*
X141447619Y-95766666D01*
X141495238Y-95790476D01*
X141519047Y-95814285D01*
X141542857Y-95861904D01*
X141542857Y-95980952D01*
X141519047Y-96028571D01*
X141495238Y-96052380D01*
X141447619Y-96076190D01*
X141328571Y-96076190D01*
X141280952Y-96052380D01*
X141257142Y-96028571D01*
X145000952Y-96436191D02*
X145000952Y-95936191D01*
X145120000Y-95936191D01*
X145191428Y-95960001D01*
X145239047Y-96007620D01*
X145262857Y-96055239D01*
X145286666Y-96150477D01*
X145286666Y-96221905D01*
X145262857Y-96317143D01*
X145239047Y-96364762D01*
X145191428Y-96412381D01*
X145120000Y-96436191D01*
X145000952Y-96436191D01*
X145453333Y-95936191D02*
X145762857Y-95936191D01*
X145596190Y-96126667D01*
X145667619Y-96126667D01*
X145715238Y-96150477D01*
X145739047Y-96174286D01*
X145762857Y-96221905D01*
X145762857Y-96340953D01*
X145739047Y-96388572D01*
X145715238Y-96412381D01*
X145667619Y-96436191D01*
X145524761Y-96436191D01*
X145477142Y-96412381D01*
X145453333Y-96388572D01*
X152203571Y-92603572D02*
X152179761Y-92627381D01*
X152108333Y-92651191D01*
X152060714Y-92651191D01*
X151989285Y-92627381D01*
X151941666Y-92579762D01*
X151917857Y-92532143D01*
X151894047Y-92436905D01*
X151894047Y-92365477D01*
X151917857Y-92270239D01*
X151941666Y-92222620D01*
X151989285Y-92175001D01*
X152060714Y-92151191D01*
X152108333Y-92151191D01*
X152179761Y-92175001D01*
X152203571Y-92198810D01*
X152679761Y-92651191D02*
X152394047Y-92651191D01*
X152536904Y-92651191D02*
X152536904Y-92151191D01*
X152489285Y-92222620D01*
X152441666Y-92270239D01*
X152394047Y-92294048D01*
X152989285Y-92151191D02*
X153036904Y-92151191D01*
X153084523Y-92175001D01*
X153108333Y-92198810D01*
X153132142Y-92246429D01*
X153155952Y-92341667D01*
X153155952Y-92460715D01*
X153132142Y-92555953D01*
X153108333Y-92603572D01*
X153084523Y-92627381D01*
X153036904Y-92651191D01*
X152989285Y-92651191D01*
X152941666Y-92627381D01*
X152917857Y-92603572D01*
X152894047Y-92555953D01*
X152870238Y-92460715D01*
X152870238Y-92341667D01*
X152894047Y-92246429D01*
X152917857Y-92198810D01*
X152941666Y-92175001D01*
X152989285Y-92151191D01*
X150916666Y-92603572D02*
X150892857Y-92627381D01*
X150821428Y-92651191D01*
X150773809Y-92651191D01*
X150702380Y-92627381D01*
X150654761Y-92579762D01*
X150630952Y-92532143D01*
X150607142Y-92436905D01*
X150607142Y-92365477D01*
X150630952Y-92270239D01*
X150654761Y-92222620D01*
X150702380Y-92175001D01*
X150773809Y-92151191D01*
X150821428Y-92151191D01*
X150892857Y-92175001D01*
X150916666Y-92198810D01*
X151154761Y-92651191D02*
X151250000Y-92651191D01*
X151297619Y-92627381D01*
X151321428Y-92603572D01*
X151369047Y-92532143D01*
X151392857Y-92436905D01*
X151392857Y-92246429D01*
X151369047Y-92198810D01*
X151345238Y-92175001D01*
X151297619Y-92151191D01*
X151202380Y-92151191D01*
X151154761Y-92175001D01*
X151130952Y-92198810D01*
X151107142Y-92246429D01*
X151107142Y-92365477D01*
X151130952Y-92413096D01*
X151154761Y-92436905D01*
X151202380Y-92460715D01*
X151297619Y-92460715D01*
X151345238Y-92436905D01*
X151369047Y-92413096D01*
X151392857Y-92365477D01*
X133383333Y-89216191D02*
X133383333Y-89573334D01*
X133359523Y-89644762D01*
X133311904Y-89692381D01*
X133240476Y-89716191D01*
X133192857Y-89716191D01*
X133883333Y-89716191D02*
X133597619Y-89716191D01*
X133740476Y-89716191D02*
X133740476Y-89216191D01*
X133692857Y-89287620D01*
X133645238Y-89335239D01*
X133597619Y-89359048D01*
X130273809Y-94047620D02*
X130250000Y-94095239D01*
X130202380Y-94142858D01*
X130130952Y-94214286D01*
X130107142Y-94261905D01*
X130107142Y-94309524D01*
X130226190Y-94285715D02*
X130202380Y-94333334D01*
X130154761Y-94380953D01*
X130059523Y-94404762D01*
X129892857Y-94404762D01*
X129797619Y-94380953D01*
X129750000Y-94333334D01*
X129726190Y-94285715D01*
X129726190Y-94190477D01*
X129750000Y-94142858D01*
X129797619Y-94095239D01*
X129892857Y-94071429D01*
X130059523Y-94071429D01*
X130154761Y-94095239D01*
X130202380Y-94142858D01*
X130226190Y-94190477D01*
X130226190Y-94285715D01*
X130226190Y-93595239D02*
X130226190Y-93880953D01*
X130226190Y-93738096D02*
X129726190Y-93738096D01*
X129797619Y-93785715D01*
X129845238Y-93833334D01*
X129869047Y-93880953D01*
X149508452Y-96426190D02*
X149508452Y-95926190D01*
X149627500Y-95926190D01*
X149698928Y-95950000D01*
X149746547Y-95997619D01*
X149770357Y-96045238D01*
X149794166Y-96140476D01*
X149794166Y-96211904D01*
X149770357Y-96307142D01*
X149746547Y-96354761D01*
X149698928Y-96402380D01*
X149627500Y-96426190D01*
X149508452Y-96426190D01*
X149984642Y-95973809D02*
X150008452Y-95950000D01*
X150056071Y-95926190D01*
X150175119Y-95926190D01*
X150222738Y-95950000D01*
X150246547Y-95973809D01*
X150270357Y-96021428D01*
X150270357Y-96069047D01*
X150246547Y-96140476D01*
X149960833Y-96426190D01*
X150270357Y-96426190D01*
X153916666Y-92603572D02*
X153892857Y-92627381D01*
X153821428Y-92651191D01*
X153773809Y-92651191D01*
X153702380Y-92627381D01*
X153654761Y-92579762D01*
X153630952Y-92532143D01*
X153607142Y-92436905D01*
X153607142Y-92365477D01*
X153630952Y-92270239D01*
X153654761Y-92222620D01*
X153702380Y-92175001D01*
X153773809Y-92151191D01*
X153821428Y-92151191D01*
X153892857Y-92175001D01*
X153916666Y-92198810D01*
X154083333Y-92151191D02*
X154416666Y-92151191D01*
X154202380Y-92651191D01*
X131516666Y-89676191D02*
X131350000Y-89438096D01*
X131230952Y-89676191D02*
X131230952Y-89176191D01*
X131421428Y-89176191D01*
X131469047Y-89200001D01*
X131492857Y-89223810D01*
X131516666Y-89271429D01*
X131516666Y-89342858D01*
X131492857Y-89390477D01*
X131469047Y-89414286D01*
X131421428Y-89438096D01*
X131230952Y-89438096D01*
X131992857Y-89676191D02*
X131707142Y-89676191D01*
X131850000Y-89676191D02*
X131850000Y-89176191D01*
X131802380Y-89247620D01*
X131754761Y-89295239D01*
X131707142Y-89319048D01*
X152866666Y-97228571D02*
X152842857Y-97252380D01*
X152771428Y-97276190D01*
X152723809Y-97276190D01*
X152652380Y-97252380D01*
X152604761Y-97204761D01*
X152580952Y-97157142D01*
X152557142Y-97061904D01*
X152557142Y-96990476D01*
X152580952Y-96895238D01*
X152604761Y-96847619D01*
X152652380Y-96800000D01*
X152723809Y-96776190D01*
X152771428Y-96776190D01*
X152842857Y-96800000D01*
X152866666Y-96823809D01*
X153295238Y-96942857D02*
X153295238Y-97276190D01*
X153176190Y-96752380D02*
X153057142Y-97109523D01*
X153366666Y-97109523D01*
X128828571Y-93433334D02*
X128852380Y-93457143D01*
X128876190Y-93528572D01*
X128876190Y-93576191D01*
X128852380Y-93647620D01*
X128804761Y-93695239D01*
X128757142Y-93719048D01*
X128661904Y-93742858D01*
X128590476Y-93742858D01*
X128495238Y-93719048D01*
X128447619Y-93695239D01*
X128400000Y-93647620D01*
X128376190Y-93576191D01*
X128376190Y-93528572D01*
X128400000Y-93457143D01*
X128423809Y-93433334D01*
X128876190Y-92957143D02*
X128876190Y-93242858D01*
X128876190Y-93100001D02*
X128376190Y-93100001D01*
X128447619Y-93147620D01*
X128495238Y-93195239D01*
X128519047Y-93242858D01*
X149416666Y-92603572D02*
X149392857Y-92627381D01*
X149321428Y-92651191D01*
X149273809Y-92651191D01*
X149202380Y-92627381D01*
X149154761Y-92579762D01*
X149130952Y-92532143D01*
X149107142Y-92436905D01*
X149107142Y-92365477D01*
X149130952Y-92270239D01*
X149154761Y-92222620D01*
X149202380Y-92175001D01*
X149273809Y-92151191D01*
X149321428Y-92151191D01*
X149392857Y-92175001D01*
X149416666Y-92198810D01*
X149702380Y-92365477D02*
X149654761Y-92341667D01*
X149630952Y-92317858D01*
X149607142Y-92270239D01*
X149607142Y-92246429D01*
X149630952Y-92198810D01*
X149654761Y-92175001D01*
X149702380Y-92151191D01*
X149797619Y-92151191D01*
X149845238Y-92175001D01*
X149869047Y-92198810D01*
X149892857Y-92246429D01*
X149892857Y-92270239D01*
X149869047Y-92317858D01*
X149845238Y-92341667D01*
X149797619Y-92365477D01*
X149702380Y-92365477D01*
X149654761Y-92389286D01*
X149630952Y-92413096D01*
X149607142Y-92460715D01*
X149607142Y-92555953D01*
X149630952Y-92603572D01*
X149654761Y-92627381D01*
X149702380Y-92651191D01*
X149797619Y-92651191D01*
X149845238Y-92627381D01*
X149869047Y-92603572D01*
X149892857Y-92555953D01*
X149892857Y-92460715D01*
X149869047Y-92413096D01*
X149845238Y-92389286D01*
X149797619Y-92365477D01*
X135975952Y-96356191D02*
X135975952Y-95856191D01*
X136095000Y-95856191D01*
X136166428Y-95880001D01*
X136214047Y-95927620D01*
X136237857Y-95975239D01*
X136261666Y-96070477D01*
X136261666Y-96141905D01*
X136237857Y-96237143D01*
X136214047Y-96284762D01*
X136166428Y-96332381D01*
X136095000Y-96356191D01*
X135975952Y-96356191D01*
X136737857Y-96356191D02*
X136452142Y-96356191D01*
X136595000Y-96356191D02*
X136595000Y-95856191D01*
X136547380Y-95927620D01*
X136499761Y-95975239D01*
X136452142Y-95999048D01*
X156016666Y-95376190D02*
X155778571Y-95376190D01*
X155778571Y-94876190D01*
X156445238Y-95376190D02*
X156159523Y-95376190D01*
X156302380Y-95376190D02*
X156302380Y-94876190D01*
X156254761Y-94947619D01*
X156207142Y-94995238D01*
X156159523Y-95019047D01*
D12*
X140240580Y-94290001D02*
X139959420Y-94290001D01*
X140240580Y-95310001D02*
X139959420Y-95310001D01*
X127524000Y-91680001D02*
X127524000Y-93180001D01*
X125304000Y-90180001D02*
X125304000Y-93180001D01*
X157610000Y-90715581D02*
X157610000Y-90434421D01*
X156590000Y-90715581D02*
X156590000Y-90434421D01*
X156085000Y-90434421D02*
X156085000Y-90715581D01*
X155065000Y-90434421D02*
X155065000Y-90715581D01*
X141920000Y-95690580D02*
X141920000Y-95409420D01*
X142940000Y-95690580D02*
X142940000Y-95409420D01*
X147580000Y-93680001D02*
X143730000Y-93680001D01*
X147580000Y-95680001D02*
X147580000Y-93680001D01*
X147580000Y-95680001D02*
X143730000Y-95680001D01*
X153035000Y-90434421D02*
X153035000Y-90715581D01*
X152015000Y-90434421D02*
X152015000Y-90715581D01*
X151510000Y-90434421D02*
X151510000Y-90715581D01*
X150490000Y-90434421D02*
X150490000Y-90715581D01*
D13*
X148250000Y-93250001D02*
X134250000Y-93250001D01*
X134250000Y-93250001D02*
X134250000Y-90750001D01*
X148250000Y-90750001D02*
X148250000Y-93250001D01*
X147450000Y-89450001D02*
X135050000Y-89450001D01*
D14*
X135650000Y-93750001D02*
G75*
G03*
X135650000Y-93750001I-100000J0D01*
G01*
D12*
X130640000Y-93400001D02*
X130640000Y-94050001D01*
X130640000Y-93400001D02*
X130640000Y-92750001D01*
X133760000Y-93400001D02*
X133760000Y-91725001D01*
X133760000Y-93400001D02*
X133760000Y-94050001D01*
X152070000Y-95680001D02*
X152070000Y-93680001D01*
X152070000Y-95680001D02*
X148220000Y-95680001D01*
X152070000Y-93680001D02*
X148220000Y-93680001D01*
X153540000Y-90715581D02*
X153540000Y-90434421D01*
X154560000Y-90715581D02*
X154560000Y-90434421D01*
X131362742Y-90077501D02*
X131837258Y-90077501D01*
X131362742Y-91122501D02*
X131837258Y-91122501D01*
X152440000Y-95340580D02*
X152440000Y-95059420D01*
X153460000Y-95340580D02*
X153460000Y-95059420D01*
X129210000Y-91209421D02*
X129210000Y-91490581D01*
X128190000Y-91209421D02*
X128190000Y-91490581D01*
X150010000Y-90434421D02*
X150010000Y-90715581D01*
X148990000Y-90434421D02*
X148990000Y-90715581D01*
X134120000Y-95140001D02*
X134120000Y-97140001D01*
X134120000Y-97140001D02*
X137970000Y-97140001D01*
X134120000Y-95140001D02*
X137970000Y-95140001D01*
X158025000Y-92975001D02*
X154025000Y-92975001D01*
X158025000Y-97175001D02*
X154025000Y-97175001D01*
M02*
