M48
METRIC,TZ
T1C0.400
%
G90
G05
T1
X121080Y-93712
X122350Y-89902
X124600Y-93650
X128150Y-94900
X128400Y-96600
X129300Y-95700
X129300Y-96600
X130200Y-96600
X131748Y-96760
X132650Y-95900
X133500Y-95900
X137336Y-89902
X138352Y-89902
X139368Y-89902
X140000Y-96000
X140384Y-89902
X141000Y-96400
X141400Y-89902
X142416Y-89902
X143620Y-89910
X143950Y-96400
X144410Y-89910
X145200Y-89900
X145400Y-94450
X145990Y-89890
X146300Y-96300
X146780Y-89870
X147600Y-96350
X151560Y-96710
X153000Y-93200
T0
M30
