G04 #@! TF.GenerationSoftware,KiCad,Pcbnew,(6.0.0)*
G04 #@! TF.CreationDate,2022-02-19T12:29:41-05:00*
G04 #@! TF.ProjectId,Card_PCB,43617264-5f50-4434-922e-6b696361645f,1.0*
G04 #@! TF.SameCoordinates,Original*
G04 #@! TF.FileFunction,Legend,Bot*
G04 #@! TF.FilePolarity,Positive*
%FSLAX46Y46*%
G04 Gerber Fmt 4.6, Leading zero omitted, Abs format (unit mm)*
G04 Created by KiCad (PCBNEW (6.0.0)) date 2022-02-19 12:29:41*
%MOMM*%
%LPD*%
G01*
G04 APERTURE LIST*
%ADD10C,0.100000*%
%ADD11C,0.125000*%
%ADD12C,0.120000*%
G04 APERTURE END LIST*
D10*
X148387380Y-90666191D02*
X148101666Y-90666191D01*
X148244523Y-91166191D02*
X148244523Y-90666191D01*
X147935000Y-91166191D02*
X147935000Y-90666191D01*
X147744523Y-90666191D01*
X147696904Y-90690001D01*
X147673095Y-90713810D01*
X147649285Y-90761429D01*
X147649285Y-90832858D01*
X147673095Y-90880477D01*
X147696904Y-90904286D01*
X147744523Y-90928096D01*
X147935000Y-90928096D01*
X147173095Y-91166191D02*
X147458809Y-91166191D01*
X147315952Y-91166191D02*
X147315952Y-90666191D01*
X147363571Y-90737620D01*
X147411190Y-90785239D01*
X147458809Y-90809048D01*
X146958809Y-90975715D02*
X146577857Y-90975715D01*
X146411190Y-90666191D02*
X146244523Y-91166191D01*
X146077857Y-90666191D01*
X145625476Y-91118572D02*
X145649285Y-91142381D01*
X145720714Y-91166191D01*
X145768333Y-91166191D01*
X145839761Y-91142381D01*
X145887380Y-91094762D01*
X145911190Y-91047143D01*
X145935000Y-90951905D01*
X145935000Y-90880477D01*
X145911190Y-90785239D01*
X145887380Y-90737620D01*
X145839761Y-90690001D01*
X145768333Y-90666191D01*
X145720714Y-90666191D01*
X145649285Y-90690001D01*
X145625476Y-90713810D01*
X145125476Y-91118572D02*
X145149285Y-91142381D01*
X145220714Y-91166191D01*
X145268333Y-91166191D01*
X145339761Y-91142381D01*
X145387380Y-91094762D01*
X145411190Y-91047143D01*
X145435000Y-90951905D01*
X145435000Y-90880477D01*
X145411190Y-90785239D01*
X145387380Y-90737620D01*
X145339761Y-90690001D01*
X145268333Y-90666191D01*
X145220714Y-90666191D01*
X145149285Y-90690001D01*
X145125476Y-90713810D01*
X143839761Y-90666191D02*
X143554047Y-90666191D01*
X143696904Y-91166191D02*
X143696904Y-90666191D01*
X143387380Y-91166191D02*
X143387380Y-90666191D01*
X143196904Y-90666191D01*
X143149285Y-90690001D01*
X143125476Y-90713810D01*
X143101666Y-90761429D01*
X143101666Y-90832858D01*
X143125476Y-90880477D01*
X143149285Y-90904286D01*
X143196904Y-90928096D01*
X143387380Y-90928096D01*
X142673095Y-90666191D02*
X142768333Y-90666191D01*
X142815952Y-90690001D01*
X142839761Y-90713810D01*
X142887380Y-90785239D01*
X142911190Y-90880477D01*
X142911190Y-91070953D01*
X142887380Y-91118572D01*
X142863571Y-91142381D01*
X142815952Y-91166191D01*
X142720714Y-91166191D01*
X142673095Y-91142381D01*
X142649285Y-91118572D01*
X142625476Y-91070953D01*
X142625476Y-90951905D01*
X142649285Y-90904286D01*
X142673095Y-90880477D01*
X142720714Y-90856667D01*
X142815952Y-90856667D01*
X142863571Y-90880477D01*
X142887380Y-90904286D01*
X142911190Y-90951905D01*
X142411190Y-90975715D02*
X142030238Y-90975715D01*
X141625476Y-90904286D02*
X141792142Y-90904286D01*
X141792142Y-91166191D02*
X141792142Y-90666191D01*
X141554047Y-90666191D01*
X141125476Y-91166191D02*
X141363571Y-91166191D01*
X141363571Y-90666191D01*
X140982619Y-91023334D02*
X140744523Y-91023334D01*
X141030238Y-91166191D02*
X140863571Y-90666191D01*
X140696904Y-91166191D01*
X140554047Y-91142381D02*
X140482619Y-91166191D01*
X140363571Y-91166191D01*
X140315952Y-91142381D01*
X140292142Y-91118572D01*
X140268333Y-91070953D01*
X140268333Y-91023334D01*
X140292142Y-90975715D01*
X140315952Y-90951905D01*
X140363571Y-90928096D01*
X140458809Y-90904286D01*
X140506428Y-90880477D01*
X140530238Y-90856667D01*
X140554047Y-90809048D01*
X140554047Y-90761429D01*
X140530238Y-90713810D01*
X140506428Y-90690001D01*
X140458809Y-90666191D01*
X140339761Y-90666191D01*
X140268333Y-90690001D01*
X140054047Y-91166191D02*
X140054047Y-90666191D01*
X140054047Y-90904286D02*
X139768333Y-90904286D01*
X139768333Y-91166191D02*
X139768333Y-90666191D01*
X139649285Y-91213810D02*
X139268333Y-91213810D01*
X138863571Y-91118572D02*
X138887380Y-91142381D01*
X138958809Y-91166191D01*
X139006428Y-91166191D01*
X139077857Y-91142381D01*
X139125476Y-91094762D01*
X139149285Y-91047143D01*
X139173095Y-90951905D01*
X139173095Y-90880477D01*
X139149285Y-90785239D01*
X139125476Y-90737620D01*
X139077857Y-90690001D01*
X139006428Y-90666191D01*
X138958809Y-90666191D01*
X138887380Y-90690001D01*
X138863571Y-90713810D01*
X138673095Y-91142381D02*
X138601666Y-91166191D01*
X138482619Y-91166191D01*
X138435000Y-91142381D01*
X138411190Y-91118572D01*
X138387380Y-91070953D01*
X138387380Y-91023334D01*
X138411190Y-90975715D01*
X138435000Y-90951905D01*
X138482619Y-90928096D01*
X138577857Y-90904286D01*
X138625476Y-90880477D01*
X138649285Y-90856667D01*
X138673095Y-90809048D01*
X138673095Y-90761429D01*
X138649285Y-90713810D01*
X138625476Y-90690001D01*
X138577857Y-90666191D01*
X138458809Y-90666191D01*
X138387380Y-90690001D01*
X148387380Y-91471191D02*
X148101666Y-91471191D01*
X148244523Y-91971191D02*
X148244523Y-91471191D01*
X147935000Y-91971191D02*
X147935000Y-91471191D01*
X147744523Y-91471191D01*
X147696904Y-91495001D01*
X147673095Y-91518810D01*
X147649285Y-91566429D01*
X147649285Y-91637858D01*
X147673095Y-91685477D01*
X147696904Y-91709286D01*
X147744523Y-91733096D01*
X147935000Y-91733096D01*
X147458809Y-91518810D02*
X147435000Y-91495001D01*
X147387380Y-91471191D01*
X147268333Y-91471191D01*
X147220714Y-91495001D01*
X147196904Y-91518810D01*
X147173095Y-91566429D01*
X147173095Y-91614048D01*
X147196904Y-91685477D01*
X147482619Y-91971191D01*
X147173095Y-91971191D01*
X146958809Y-91780715D02*
X146577857Y-91780715D01*
X146077857Y-91495001D02*
X146125476Y-91471191D01*
X146196904Y-91471191D01*
X146268333Y-91495001D01*
X146315952Y-91542620D01*
X146339761Y-91590239D01*
X146363571Y-91685477D01*
X146363571Y-91756905D01*
X146339761Y-91852143D01*
X146315952Y-91899762D01*
X146268333Y-91947381D01*
X146196904Y-91971191D01*
X146149285Y-91971191D01*
X146077857Y-91947381D01*
X146054047Y-91923572D01*
X146054047Y-91756905D01*
X146149285Y-91756905D01*
X145839761Y-91971191D02*
X145839761Y-91471191D01*
X145554047Y-91971191D01*
X145554047Y-91471191D01*
X145315952Y-91971191D02*
X145315952Y-91471191D01*
X145196904Y-91471191D01*
X145125476Y-91495001D01*
X145077857Y-91542620D01*
X145054047Y-91590239D01*
X145030238Y-91685477D01*
X145030238Y-91756905D01*
X145054047Y-91852143D01*
X145077857Y-91899762D01*
X145125476Y-91947381D01*
X145196904Y-91971191D01*
X145315952Y-91971191D01*
X143744523Y-91471191D02*
X143458809Y-91471191D01*
X143601666Y-91971191D02*
X143601666Y-91471191D01*
X143292142Y-91971191D02*
X143292142Y-91471191D01*
X143101666Y-91471191D01*
X143054047Y-91495001D01*
X143030238Y-91518810D01*
X143006428Y-91566429D01*
X143006428Y-91637858D01*
X143030238Y-91685477D01*
X143054047Y-91709286D01*
X143101666Y-91733096D01*
X143292142Y-91733096D01*
X142839761Y-91471191D02*
X142506428Y-91471191D01*
X142720714Y-91971191D01*
X142315952Y-91780715D02*
X141935000Y-91780715D01*
X141696904Y-91971191D02*
X141696904Y-91471191D01*
X141577857Y-91471191D01*
X141506428Y-91495001D01*
X141458809Y-91542620D01*
X141435000Y-91590239D01*
X141411190Y-91685477D01*
X141411190Y-91756905D01*
X141435000Y-91852143D01*
X141458809Y-91899762D01*
X141506428Y-91947381D01*
X141577857Y-91971191D01*
X141696904Y-91971191D01*
X141196904Y-91971191D02*
X141196904Y-91471191D01*
X140982619Y-91947381D02*
X140911190Y-91971191D01*
X140792142Y-91971191D01*
X140744523Y-91947381D01*
X140720714Y-91923572D01*
X140696904Y-91875953D01*
X140696904Y-91828334D01*
X140720714Y-91780715D01*
X140744523Y-91756905D01*
X140792142Y-91733096D01*
X140887380Y-91709286D01*
X140935000Y-91685477D01*
X140958809Y-91661667D01*
X140982619Y-91614048D01*
X140982619Y-91566429D01*
X140958809Y-91518810D01*
X140935000Y-91495001D01*
X140887380Y-91471191D01*
X140768333Y-91471191D01*
X140696904Y-91495001D01*
X140482619Y-91971191D02*
X140482619Y-91471191D01*
X140292142Y-91471191D01*
X140244523Y-91495001D01*
X140220714Y-91518810D01*
X140196904Y-91566429D01*
X140196904Y-91637858D01*
X140220714Y-91685477D01*
X140244523Y-91709286D01*
X140292142Y-91733096D01*
X140482619Y-91733096D01*
X139744523Y-91971191D02*
X139982619Y-91971191D01*
X139982619Y-91471191D01*
X139601666Y-91828334D02*
X139363571Y-91828334D01*
X139649285Y-91971191D02*
X139482619Y-91471191D01*
X139315952Y-91971191D01*
X139054047Y-91733096D02*
X139054047Y-91971191D01*
X139220714Y-91471191D02*
X139054047Y-91733096D01*
X138887380Y-91471191D01*
X138839761Y-92018810D02*
X138458809Y-92018810D01*
X138054047Y-91923572D02*
X138077857Y-91947381D01*
X138149285Y-91971191D01*
X138196904Y-91971191D01*
X138268333Y-91947381D01*
X138315952Y-91899762D01*
X138339761Y-91852143D01*
X138363571Y-91756905D01*
X138363571Y-91685477D01*
X138339761Y-91590239D01*
X138315952Y-91542620D01*
X138268333Y-91495001D01*
X138196904Y-91471191D01*
X138149285Y-91471191D01*
X138077857Y-91495001D01*
X138054047Y-91518810D01*
X137863571Y-91947381D02*
X137792142Y-91971191D01*
X137673095Y-91971191D01*
X137625476Y-91947381D01*
X137601666Y-91923572D01*
X137577857Y-91875953D01*
X137577857Y-91828334D01*
X137601666Y-91780715D01*
X137625476Y-91756905D01*
X137673095Y-91733096D01*
X137768333Y-91709286D01*
X137815952Y-91685477D01*
X137839761Y-91661667D01*
X137863571Y-91614048D01*
X137863571Y-91566429D01*
X137839761Y-91518810D01*
X137815952Y-91495001D01*
X137768333Y-91471191D01*
X137649285Y-91471191D01*
X137577857Y-91495001D01*
X148387380Y-92276191D02*
X148101666Y-92276191D01*
X148244523Y-92776191D02*
X148244523Y-92276191D01*
X147935000Y-92776191D02*
X147935000Y-92276191D01*
X147744523Y-92276191D01*
X147696904Y-92300001D01*
X147673095Y-92323810D01*
X147649285Y-92371429D01*
X147649285Y-92442858D01*
X147673095Y-92490477D01*
X147696904Y-92514286D01*
X147744523Y-92538096D01*
X147935000Y-92538096D01*
X147482619Y-92276191D02*
X147173095Y-92276191D01*
X147339761Y-92466667D01*
X147268333Y-92466667D01*
X147220714Y-92490477D01*
X147196904Y-92514286D01*
X147173095Y-92561905D01*
X147173095Y-92680953D01*
X147196904Y-92728572D01*
X147220714Y-92752381D01*
X147268333Y-92776191D01*
X147411190Y-92776191D01*
X147458809Y-92752381D01*
X147482619Y-92728572D01*
X146958809Y-92585715D02*
X146577857Y-92585715D01*
X146363571Y-92752381D02*
X146292142Y-92776191D01*
X146173095Y-92776191D01*
X146125476Y-92752381D01*
X146101666Y-92728572D01*
X146077857Y-92680953D01*
X146077857Y-92633334D01*
X146101666Y-92585715D01*
X146125476Y-92561905D01*
X146173095Y-92538096D01*
X146268333Y-92514286D01*
X146315952Y-92490477D01*
X146339761Y-92466667D01*
X146363571Y-92419048D01*
X146363571Y-92371429D01*
X146339761Y-92323810D01*
X146315952Y-92300001D01*
X146268333Y-92276191D01*
X146149285Y-92276191D01*
X146077857Y-92300001D01*
X145577857Y-92728572D02*
X145601666Y-92752381D01*
X145673095Y-92776191D01*
X145720714Y-92776191D01*
X145792142Y-92752381D01*
X145839761Y-92704762D01*
X145863571Y-92657143D01*
X145887380Y-92561905D01*
X145887380Y-92490477D01*
X145863571Y-92395239D01*
X145839761Y-92347620D01*
X145792142Y-92300001D01*
X145720714Y-92276191D01*
X145673095Y-92276191D01*
X145601666Y-92300001D01*
X145577857Y-92323810D01*
X145125476Y-92776191D02*
X145363571Y-92776191D01*
X145363571Y-92276191D01*
X144958809Y-92776191D02*
X144958809Y-92276191D01*
X144673095Y-92776191D02*
X144887380Y-92490477D01*
X144673095Y-92276191D02*
X144958809Y-92561905D01*
X143768333Y-92276191D02*
X143482619Y-92276191D01*
X143625476Y-92776191D02*
X143625476Y-92276191D01*
X143315952Y-92776191D02*
X143315952Y-92276191D01*
X143125476Y-92276191D01*
X143077857Y-92300001D01*
X143054047Y-92323810D01*
X143030238Y-92371429D01*
X143030238Y-92442858D01*
X143054047Y-92490477D01*
X143077857Y-92514286D01*
X143125476Y-92538096D01*
X143315952Y-92538096D01*
X142744523Y-92490477D02*
X142792142Y-92466667D01*
X142815952Y-92442858D01*
X142839761Y-92395239D01*
X142839761Y-92371429D01*
X142815952Y-92323810D01*
X142792142Y-92300001D01*
X142744523Y-92276191D01*
X142649285Y-92276191D01*
X142601666Y-92300001D01*
X142577857Y-92323810D01*
X142554047Y-92371429D01*
X142554047Y-92395239D01*
X142577857Y-92442858D01*
X142601666Y-92466667D01*
X142649285Y-92490477D01*
X142744523Y-92490477D01*
X142792142Y-92514286D01*
X142815952Y-92538096D01*
X142839761Y-92585715D01*
X142839761Y-92680953D01*
X142815952Y-92728572D01*
X142792142Y-92752381D01*
X142744523Y-92776191D01*
X142649285Y-92776191D01*
X142601666Y-92752381D01*
X142577857Y-92728572D01*
X142554047Y-92680953D01*
X142554047Y-92585715D01*
X142577857Y-92538096D01*
X142601666Y-92514286D01*
X142649285Y-92490477D01*
X142339761Y-92585715D02*
X141958809Y-92585715D01*
X141720714Y-92776191D02*
X141720714Y-92276191D01*
X141601666Y-92276191D01*
X141530238Y-92300001D01*
X141482619Y-92347620D01*
X141458809Y-92395239D01*
X141435000Y-92490477D01*
X141435000Y-92561905D01*
X141458809Y-92657143D01*
X141482619Y-92704762D01*
X141530238Y-92752381D01*
X141601666Y-92776191D01*
X141720714Y-92776191D01*
X141220714Y-92776191D02*
X141220714Y-92276191D01*
X141006428Y-92752381D02*
X140935000Y-92776191D01*
X140815952Y-92776191D01*
X140768333Y-92752381D01*
X140744523Y-92728572D01*
X140720714Y-92680953D01*
X140720714Y-92633334D01*
X140744523Y-92585715D01*
X140768333Y-92561905D01*
X140815952Y-92538096D01*
X140911190Y-92514286D01*
X140958809Y-92490477D01*
X140982619Y-92466667D01*
X141006428Y-92419048D01*
X141006428Y-92371429D01*
X140982619Y-92323810D01*
X140958809Y-92300001D01*
X140911190Y-92276191D01*
X140792142Y-92276191D01*
X140720714Y-92300001D01*
X140506428Y-92776191D02*
X140506428Y-92276191D01*
X140315952Y-92276191D01*
X140268333Y-92300001D01*
X140244523Y-92323810D01*
X140220714Y-92371429D01*
X140220714Y-92442858D01*
X140244523Y-92490477D01*
X140268333Y-92514286D01*
X140315952Y-92538096D01*
X140506428Y-92538096D01*
X139768333Y-92776191D02*
X140006428Y-92776191D01*
X140006428Y-92276191D01*
X139625476Y-92633334D02*
X139387380Y-92633334D01*
X139673095Y-92776191D02*
X139506428Y-92276191D01*
X139339761Y-92776191D01*
X139077857Y-92538096D02*
X139077857Y-92776191D01*
X139244523Y-92276191D02*
X139077857Y-92538096D01*
X138911190Y-92276191D01*
X138863571Y-92823810D02*
X138482619Y-92823810D01*
X138196904Y-92514286D02*
X138125476Y-92538096D01*
X138101666Y-92561905D01*
X138077857Y-92609524D01*
X138077857Y-92680953D01*
X138101666Y-92728572D01*
X138125476Y-92752381D01*
X138173095Y-92776191D01*
X138363571Y-92776191D01*
X138363571Y-92276191D01*
X138196904Y-92276191D01*
X138149285Y-92300001D01*
X138125476Y-92323810D01*
X138101666Y-92371429D01*
X138101666Y-92419048D01*
X138125476Y-92466667D01*
X138149285Y-92490477D01*
X138196904Y-92514286D01*
X138363571Y-92514286D01*
X137863571Y-92276191D02*
X137863571Y-92680953D01*
X137839761Y-92728572D01*
X137815952Y-92752381D01*
X137768333Y-92776191D01*
X137673095Y-92776191D01*
X137625476Y-92752381D01*
X137601666Y-92728572D01*
X137577857Y-92680953D01*
X137577857Y-92276191D01*
X137363571Y-92752381D02*
X137292142Y-92776191D01*
X137173095Y-92776191D01*
X137125476Y-92752381D01*
X137101666Y-92728572D01*
X137077857Y-92680953D01*
X137077857Y-92633334D01*
X137101666Y-92585715D01*
X137125476Y-92561905D01*
X137173095Y-92538096D01*
X137268333Y-92514286D01*
X137315952Y-92490477D01*
X137339761Y-92466667D01*
X137363571Y-92419048D01*
X137363571Y-92371429D01*
X137339761Y-92323810D01*
X137315952Y-92300001D01*
X137268333Y-92276191D01*
X137149285Y-92276191D01*
X137077857Y-92300001D01*
X136768333Y-92538096D02*
X136768333Y-92776191D01*
X136935000Y-92276191D02*
X136768333Y-92538096D01*
X136601666Y-92276191D01*
X148387380Y-93081191D02*
X148101666Y-93081191D01*
X148244523Y-93581191D02*
X148244523Y-93081191D01*
X147935000Y-93581191D02*
X147935000Y-93081191D01*
X147744523Y-93081191D01*
X147696904Y-93105001D01*
X147673095Y-93128810D01*
X147649285Y-93176429D01*
X147649285Y-93247858D01*
X147673095Y-93295477D01*
X147696904Y-93319286D01*
X147744523Y-93343096D01*
X147935000Y-93343096D01*
X147220714Y-93247858D02*
X147220714Y-93581191D01*
X147339761Y-93057381D02*
X147458809Y-93414524D01*
X147149285Y-93414524D01*
X146958809Y-93390715D02*
X146577857Y-93390715D01*
X146339761Y-93581191D02*
X146339761Y-93081191D01*
X146173095Y-93438334D01*
X146006428Y-93081191D01*
X146006428Y-93581191D01*
X145673095Y-93081191D02*
X145577857Y-93081191D01*
X145530238Y-93105001D01*
X145482619Y-93152620D01*
X145458809Y-93247858D01*
X145458809Y-93414524D01*
X145482619Y-93509762D01*
X145530238Y-93557381D01*
X145577857Y-93581191D01*
X145673095Y-93581191D01*
X145720714Y-93557381D01*
X145768333Y-93509762D01*
X145792142Y-93414524D01*
X145792142Y-93247858D01*
X145768333Y-93152620D01*
X145720714Y-93105001D01*
X145673095Y-93081191D01*
X145268333Y-93557381D02*
X145196904Y-93581191D01*
X145077857Y-93581191D01*
X145030238Y-93557381D01*
X145006428Y-93533572D01*
X144982619Y-93485953D01*
X144982619Y-93438334D01*
X145006428Y-93390715D01*
X145030238Y-93366905D01*
X145077857Y-93343096D01*
X145173095Y-93319286D01*
X145220714Y-93295477D01*
X145244523Y-93271667D01*
X145268333Y-93224048D01*
X145268333Y-93176429D01*
X145244523Y-93128810D01*
X145220714Y-93105001D01*
X145173095Y-93081191D01*
X145054047Y-93081191D01*
X144982619Y-93105001D01*
X144768333Y-93581191D02*
X144768333Y-93081191D01*
X143839761Y-93081191D02*
X143554047Y-93081191D01*
X143696904Y-93581191D02*
X143696904Y-93081191D01*
X143387380Y-93581191D02*
X143387380Y-93081191D01*
X143196904Y-93081191D01*
X143149285Y-93105001D01*
X143125476Y-93128810D01*
X143101666Y-93176429D01*
X143101666Y-93247858D01*
X143125476Y-93295477D01*
X143149285Y-93319286D01*
X143196904Y-93343096D01*
X143387380Y-93343096D01*
X142863571Y-93581191D02*
X142768333Y-93581191D01*
X142720714Y-93557381D01*
X142696904Y-93533572D01*
X142649285Y-93462143D01*
X142625476Y-93366905D01*
X142625476Y-93176429D01*
X142649285Y-93128810D01*
X142673095Y-93105001D01*
X142720714Y-93081191D01*
X142815952Y-93081191D01*
X142863571Y-93105001D01*
X142887380Y-93128810D01*
X142911190Y-93176429D01*
X142911190Y-93295477D01*
X142887380Y-93343096D01*
X142863571Y-93366905D01*
X142815952Y-93390715D01*
X142720714Y-93390715D01*
X142673095Y-93366905D01*
X142649285Y-93343096D01*
X142625476Y-93295477D01*
X142411190Y-93390715D02*
X142030238Y-93390715D01*
X141792142Y-93581191D02*
X141792142Y-93081191D01*
X141673095Y-93081191D01*
X141601666Y-93105001D01*
X141554047Y-93152620D01*
X141530238Y-93200239D01*
X141506428Y-93295477D01*
X141506428Y-93366905D01*
X141530238Y-93462143D01*
X141554047Y-93509762D01*
X141601666Y-93557381D01*
X141673095Y-93581191D01*
X141792142Y-93581191D01*
X141292142Y-93581191D02*
X141292142Y-93081191D01*
X141077857Y-93557381D02*
X141006428Y-93581191D01*
X140887380Y-93581191D01*
X140839761Y-93557381D01*
X140815952Y-93533572D01*
X140792142Y-93485953D01*
X140792142Y-93438334D01*
X140815952Y-93390715D01*
X140839761Y-93366905D01*
X140887380Y-93343096D01*
X140982619Y-93319286D01*
X141030238Y-93295477D01*
X141054047Y-93271667D01*
X141077857Y-93224048D01*
X141077857Y-93176429D01*
X141054047Y-93128810D01*
X141030238Y-93105001D01*
X140982619Y-93081191D01*
X140863571Y-93081191D01*
X140792142Y-93105001D01*
X140577857Y-93581191D02*
X140577857Y-93081191D01*
X140387380Y-93081191D01*
X140339761Y-93105001D01*
X140315952Y-93128810D01*
X140292142Y-93176429D01*
X140292142Y-93247858D01*
X140315952Y-93295477D01*
X140339761Y-93319286D01*
X140387380Y-93343096D01*
X140577857Y-93343096D01*
X139839761Y-93581191D02*
X140077857Y-93581191D01*
X140077857Y-93081191D01*
X139696904Y-93438334D02*
X139458809Y-93438334D01*
X139744523Y-93581191D02*
X139577857Y-93081191D01*
X139411190Y-93581191D01*
X139149285Y-93343096D02*
X139149285Y-93581191D01*
X139315952Y-93081191D02*
X139149285Y-93343096D01*
X138982619Y-93081191D01*
X138935000Y-93628810D02*
X138554047Y-93628810D01*
X138149285Y-93581191D02*
X138315952Y-93343096D01*
X138435000Y-93581191D02*
X138435000Y-93081191D01*
X138244523Y-93081191D01*
X138196904Y-93105001D01*
X138173095Y-93128810D01*
X138149285Y-93176429D01*
X138149285Y-93247858D01*
X138173095Y-93295477D01*
X138196904Y-93319286D01*
X138244523Y-93343096D01*
X138435000Y-93343096D01*
X137935000Y-93319286D02*
X137768333Y-93319286D01*
X137696904Y-93581191D02*
X137935000Y-93581191D01*
X137935000Y-93081191D01*
X137696904Y-93081191D01*
X137506428Y-93557381D02*
X137435000Y-93581191D01*
X137315952Y-93581191D01*
X137268333Y-93557381D01*
X137244523Y-93533572D01*
X137220714Y-93485953D01*
X137220714Y-93438334D01*
X137244523Y-93390715D01*
X137268333Y-93366905D01*
X137315952Y-93343096D01*
X137411190Y-93319286D01*
X137458809Y-93295477D01*
X137482619Y-93271667D01*
X137506428Y-93224048D01*
X137506428Y-93176429D01*
X137482619Y-93128810D01*
X137458809Y-93105001D01*
X137411190Y-93081191D01*
X137292142Y-93081191D01*
X137220714Y-93105001D01*
X137006428Y-93319286D02*
X136839761Y-93319286D01*
X136768333Y-93581191D02*
X137006428Y-93581191D01*
X137006428Y-93081191D01*
X136768333Y-93081191D01*
X136625476Y-93081191D02*
X136339761Y-93081191D01*
X136482619Y-93581191D02*
X136482619Y-93081191D01*
X148387380Y-93886191D02*
X148101666Y-93886191D01*
X148244523Y-94386191D02*
X148244523Y-93886191D01*
X147935000Y-94386191D02*
X147935000Y-93886191D01*
X147744523Y-93886191D01*
X147696904Y-93910001D01*
X147673095Y-93933810D01*
X147649285Y-93981429D01*
X147649285Y-94052858D01*
X147673095Y-94100477D01*
X147696904Y-94124286D01*
X147744523Y-94148096D01*
X147935000Y-94148096D01*
X147196904Y-93886191D02*
X147435000Y-93886191D01*
X147458809Y-94124286D01*
X147435000Y-94100477D01*
X147387380Y-94076667D01*
X147268333Y-94076667D01*
X147220714Y-94100477D01*
X147196904Y-94124286D01*
X147173095Y-94171905D01*
X147173095Y-94290953D01*
X147196904Y-94338572D01*
X147220714Y-94362381D01*
X147268333Y-94386191D01*
X147387380Y-94386191D01*
X147435000Y-94362381D01*
X147458809Y-94338572D01*
X146958809Y-94195715D02*
X146577857Y-94195715D01*
X146339761Y-94386191D02*
X146339761Y-93886191D01*
X146173095Y-94243334D01*
X146006428Y-93886191D01*
X146006428Y-94386191D01*
X145768333Y-94386191D02*
X145768333Y-93886191D01*
X145554047Y-94362381D02*
X145482619Y-94386191D01*
X145363571Y-94386191D01*
X145315952Y-94362381D01*
X145292142Y-94338572D01*
X145268333Y-94290953D01*
X145268333Y-94243334D01*
X145292142Y-94195715D01*
X145315952Y-94171905D01*
X145363571Y-94148096D01*
X145458809Y-94124286D01*
X145506428Y-94100477D01*
X145530238Y-94076667D01*
X145554047Y-94029048D01*
X145554047Y-93981429D01*
X145530238Y-93933810D01*
X145506428Y-93910001D01*
X145458809Y-93886191D01*
X145339761Y-93886191D01*
X145268333Y-93910001D01*
X144958809Y-93886191D02*
X144863571Y-93886191D01*
X144815952Y-93910001D01*
X144768333Y-93957620D01*
X144744523Y-94052858D01*
X144744523Y-94219524D01*
X144768333Y-94314762D01*
X144815952Y-94362381D01*
X144863571Y-94386191D01*
X144958809Y-94386191D01*
X145006428Y-94362381D01*
X145054047Y-94314762D01*
X145077857Y-94219524D01*
X145077857Y-94052858D01*
X145054047Y-93957620D01*
X145006428Y-93910001D01*
X144958809Y-93886191D01*
X143839761Y-93886191D02*
X143554047Y-93886191D01*
X143696904Y-94386191D02*
X143696904Y-93886191D01*
X143387380Y-94386191D02*
X143387380Y-93886191D01*
X143196904Y-93886191D01*
X143149285Y-93910001D01*
X143125476Y-93933810D01*
X143101666Y-93981429D01*
X143101666Y-94052858D01*
X143125476Y-94100477D01*
X143149285Y-94124286D01*
X143196904Y-94148096D01*
X143387380Y-94148096D01*
X142625476Y-94386191D02*
X142911190Y-94386191D01*
X142768333Y-94386191D02*
X142768333Y-93886191D01*
X142815952Y-93957620D01*
X142863571Y-94005239D01*
X142911190Y-94029048D01*
X142315952Y-93886191D02*
X142268333Y-93886191D01*
X142220714Y-93910001D01*
X142196904Y-93933810D01*
X142173095Y-93981429D01*
X142149285Y-94076667D01*
X142149285Y-94195715D01*
X142173095Y-94290953D01*
X142196904Y-94338572D01*
X142220714Y-94362381D01*
X142268333Y-94386191D01*
X142315952Y-94386191D01*
X142363571Y-94362381D01*
X142387380Y-94338572D01*
X142411190Y-94290953D01*
X142435000Y-94195715D01*
X142435000Y-94076667D01*
X142411190Y-93981429D01*
X142387380Y-93933810D01*
X142363571Y-93910001D01*
X142315952Y-93886191D01*
X141935000Y-94195715D02*
X141554047Y-94195715D01*
X141315952Y-94386191D02*
X141315952Y-93886191D01*
X141196904Y-93886191D01*
X141125476Y-93910001D01*
X141077857Y-93957620D01*
X141054047Y-94005239D01*
X141030238Y-94100477D01*
X141030238Y-94171905D01*
X141054047Y-94267143D01*
X141077857Y-94314762D01*
X141125476Y-94362381D01*
X141196904Y-94386191D01*
X141315952Y-94386191D01*
X140815952Y-94386191D02*
X140815952Y-93886191D01*
X140601666Y-94362381D02*
X140530238Y-94386191D01*
X140411190Y-94386191D01*
X140363571Y-94362381D01*
X140339761Y-94338572D01*
X140315952Y-94290953D01*
X140315952Y-94243334D01*
X140339761Y-94195715D01*
X140363571Y-94171905D01*
X140411190Y-94148096D01*
X140506428Y-94124286D01*
X140554047Y-94100477D01*
X140577857Y-94076667D01*
X140601666Y-94029048D01*
X140601666Y-93981429D01*
X140577857Y-93933810D01*
X140554047Y-93910001D01*
X140506428Y-93886191D01*
X140387380Y-93886191D01*
X140315952Y-93910001D01*
X140101666Y-94386191D02*
X140101666Y-93886191D01*
X139911190Y-93886191D01*
X139863571Y-93910001D01*
X139839761Y-93933810D01*
X139815952Y-93981429D01*
X139815952Y-94052858D01*
X139839761Y-94100477D01*
X139863571Y-94124286D01*
X139911190Y-94148096D01*
X140101666Y-94148096D01*
X139363571Y-94386191D02*
X139601666Y-94386191D01*
X139601666Y-93886191D01*
X139220714Y-94243334D02*
X138982619Y-94243334D01*
X139268333Y-94386191D02*
X139101666Y-93886191D01*
X138935000Y-94386191D01*
X138673095Y-94148096D02*
X138673095Y-94386191D01*
X138839761Y-93886191D02*
X138673095Y-94148096D01*
X138506428Y-93886191D01*
X138458809Y-94433810D02*
X138077857Y-94433810D01*
X137958809Y-94386191D02*
X137958809Y-93886191D01*
X137839761Y-93886191D01*
X137768333Y-93910001D01*
X137720714Y-93957620D01*
X137696904Y-94005239D01*
X137673095Y-94100477D01*
X137673095Y-94171905D01*
X137696904Y-94267143D01*
X137720714Y-94314762D01*
X137768333Y-94362381D01*
X137839761Y-94386191D01*
X137958809Y-94386191D01*
X137173095Y-94338572D02*
X137196904Y-94362381D01*
X137268333Y-94386191D01*
X137315952Y-94386191D01*
X137387380Y-94362381D01*
X137435000Y-94314762D01*
X137458809Y-94267143D01*
X137482619Y-94171905D01*
X137482619Y-94100477D01*
X137458809Y-94005239D01*
X137435000Y-93957620D01*
X137387380Y-93910001D01*
X137315952Y-93886191D01*
X137268333Y-93886191D01*
X137196904Y-93910001D01*
X137173095Y-93933810D01*
D11*
X126790952Y-92422191D02*
X126505238Y-92422191D01*
X126648095Y-92922191D02*
X126648095Y-92422191D01*
X126338571Y-92922191D02*
X126338571Y-92422191D01*
X126148095Y-92422191D01*
X126100476Y-92446001D01*
X126076666Y-92469810D01*
X126052857Y-92517429D01*
X126052857Y-92588858D01*
X126076666Y-92636477D01*
X126100476Y-92660286D01*
X126148095Y-92684096D01*
X126338571Y-92684096D01*
X125886190Y-92422191D02*
X125552857Y-92422191D01*
X125767142Y-92922191D01*
X130077047Y-92422191D02*
X129791333Y-92422191D01*
X129934190Y-92922191D02*
X129934190Y-92422191D01*
X129624666Y-92922191D02*
X129624666Y-92422191D01*
X129434190Y-92422191D01*
X129386571Y-92446001D01*
X129362761Y-92469810D01*
X129338952Y-92517429D01*
X129338952Y-92588858D01*
X129362761Y-92636477D01*
X129386571Y-92660286D01*
X129434190Y-92684096D01*
X129624666Y-92684096D01*
X128862761Y-92922191D02*
X129148476Y-92922191D01*
X129005619Y-92922191D02*
X129005619Y-92422191D01*
X129053238Y-92493620D01*
X129100857Y-92541239D01*
X129148476Y-92565048D01*
X128553238Y-92422191D02*
X128505619Y-92422191D01*
X128458000Y-92446001D01*
X128434190Y-92469810D01*
X128410380Y-92517429D01*
X128386571Y-92612667D01*
X128386571Y-92731715D01*
X128410380Y-92826953D01*
X128434190Y-92874572D01*
X128458000Y-92898381D01*
X128505619Y-92922191D01*
X128553238Y-92922191D01*
X128600857Y-92898381D01*
X128624666Y-92874572D01*
X128648476Y-92826953D01*
X128672285Y-92731715D01*
X128672285Y-92612667D01*
X128648476Y-92517429D01*
X128624666Y-92469810D01*
X128600857Y-92446001D01*
X128553238Y-92422191D01*
X123742952Y-93626190D02*
X123457238Y-93626190D01*
X123600095Y-94126190D02*
X123600095Y-93626190D01*
X123290571Y-94126190D02*
X123290571Y-93626190D01*
X123100095Y-93626190D01*
X123052476Y-93650000D01*
X123028666Y-93673809D01*
X123004857Y-93721428D01*
X123004857Y-93792857D01*
X123028666Y-93840476D01*
X123052476Y-93864285D01*
X123100095Y-93888095D01*
X123290571Y-93888095D01*
X122838190Y-93626190D02*
X122528666Y-93626190D01*
X122695333Y-93816666D01*
X122623904Y-93816666D01*
X122576285Y-93840476D01*
X122552476Y-93864285D01*
X122528666Y-93911904D01*
X122528666Y-94030952D01*
X122552476Y-94078571D01*
X122576285Y-94102380D01*
X122623904Y-94126190D01*
X122766761Y-94126190D01*
X122814380Y-94102380D01*
X122838190Y-94078571D01*
X126780952Y-93626190D02*
X126495238Y-93626190D01*
X126638095Y-94126190D02*
X126638095Y-93626190D01*
X126328571Y-94126190D02*
X126328571Y-93626190D01*
X126138095Y-93626190D01*
X126090476Y-93650000D01*
X126066666Y-93673809D01*
X126042857Y-93721428D01*
X126042857Y-93792857D01*
X126066666Y-93840476D01*
X126090476Y-93864285D01*
X126138095Y-93888095D01*
X126328571Y-93888095D01*
X125614285Y-93792857D02*
X125614285Y-94126190D01*
X125733333Y-93602380D02*
X125852380Y-93959523D01*
X125542857Y-93959523D01*
X157370952Y-92056191D02*
X157085238Y-92056191D01*
X157228095Y-92556191D02*
X157228095Y-92056191D01*
X156918571Y-92556191D02*
X156918571Y-92056191D01*
X156728095Y-92056191D01*
X156680476Y-92080001D01*
X156656666Y-92103810D01*
X156632857Y-92151429D01*
X156632857Y-92222858D01*
X156656666Y-92270477D01*
X156680476Y-92294286D01*
X156728095Y-92318096D01*
X156918571Y-92318096D01*
X156442380Y-92103810D02*
X156418571Y-92080001D01*
X156370952Y-92056191D01*
X156251904Y-92056191D01*
X156204285Y-92080001D01*
X156180476Y-92103810D01*
X156156666Y-92151429D01*
X156156666Y-92199048D01*
X156180476Y-92270477D01*
X156466190Y-92556191D01*
X156156666Y-92556191D01*
X135330952Y-92426191D02*
X135045238Y-92426191D01*
X135188095Y-92926191D02*
X135188095Y-92426191D01*
X134878571Y-92926191D02*
X134878571Y-92426191D01*
X134688095Y-92426191D01*
X134640476Y-92450001D01*
X134616666Y-92473810D01*
X134592857Y-92521429D01*
X134592857Y-92592858D01*
X134616666Y-92640477D01*
X134640476Y-92664286D01*
X134688095Y-92688096D01*
X134878571Y-92688096D01*
X134307142Y-92640477D02*
X134354761Y-92616667D01*
X134378571Y-92592858D01*
X134402380Y-92545239D01*
X134402380Y-92521429D01*
X134378571Y-92473810D01*
X134354761Y-92450001D01*
X134307142Y-92426191D01*
X134211904Y-92426191D01*
X134164285Y-92450001D01*
X134140476Y-92473810D01*
X134116666Y-92521429D01*
X134116666Y-92545239D01*
X134140476Y-92592858D01*
X134164285Y-92616667D01*
X134211904Y-92640477D01*
X134307142Y-92640477D01*
X134354761Y-92664286D01*
X134378571Y-92688096D01*
X134402380Y-92735715D01*
X134402380Y-92830953D01*
X134378571Y-92878572D01*
X134354761Y-92902381D01*
X134307142Y-92926191D01*
X134211904Y-92926191D01*
X134164285Y-92902381D01*
X134140476Y-92878572D01*
X134116666Y-92830953D01*
X134116666Y-92735715D01*
X134140476Y-92688096D01*
X134164285Y-92664286D01*
X134211904Y-92640477D01*
X132886952Y-92422191D02*
X132601238Y-92422191D01*
X132744095Y-92922191D02*
X132744095Y-92422191D01*
X132434571Y-92922191D02*
X132434571Y-92422191D01*
X132244095Y-92422191D01*
X132196476Y-92446001D01*
X132172666Y-92469810D01*
X132148857Y-92517429D01*
X132148857Y-92588858D01*
X132172666Y-92636477D01*
X132196476Y-92660286D01*
X132244095Y-92684096D01*
X132434571Y-92684096D01*
X131910761Y-92922191D02*
X131815523Y-92922191D01*
X131767904Y-92898381D01*
X131744095Y-92874572D01*
X131696476Y-92803143D01*
X131672666Y-92707905D01*
X131672666Y-92517429D01*
X131696476Y-92469810D01*
X131720285Y-92446001D01*
X131767904Y-92422191D01*
X131863142Y-92422191D01*
X131910761Y-92446001D01*
X131934571Y-92469810D01*
X131958380Y-92517429D01*
X131958380Y-92636477D01*
X131934571Y-92684096D01*
X131910761Y-92707905D01*
X131863142Y-92731715D01*
X131767904Y-92731715D01*
X131720285Y-92707905D01*
X131696476Y-92684096D01*
X131672666Y-92636477D01*
X120680952Y-92276190D02*
X120395238Y-92276190D01*
X120538095Y-92776190D02*
X120538095Y-92276190D01*
X120228571Y-92776190D02*
X120228571Y-92276190D01*
X120038095Y-92276190D01*
X119990476Y-92300000D01*
X119966666Y-92323809D01*
X119942857Y-92371428D01*
X119942857Y-92442857D01*
X119966666Y-92490476D01*
X119990476Y-92514285D01*
X120038095Y-92538095D01*
X120228571Y-92538095D01*
X119514285Y-92276190D02*
X119609523Y-92276190D01*
X119657142Y-92300000D01*
X119680952Y-92323809D01*
X119728571Y-92395238D01*
X119752380Y-92490476D01*
X119752380Y-92680952D01*
X119728571Y-92728571D01*
X119704761Y-92752380D01*
X119657142Y-92776190D01*
X119561904Y-92776190D01*
X119514285Y-92752380D01*
X119490476Y-92728571D01*
X119466666Y-92680952D01*
X119466666Y-92561904D01*
X119490476Y-92514285D01*
X119514285Y-92490476D01*
X119561904Y-92466666D01*
X119657142Y-92466666D01*
X119704761Y-92490476D01*
X119728571Y-92514285D01*
X119752380Y-92561904D01*
X157390952Y-93906191D02*
X157105238Y-93906191D01*
X157248095Y-94406191D02*
X157248095Y-93906191D01*
X156938571Y-94406191D02*
X156938571Y-93906191D01*
X156748095Y-93906191D01*
X156700476Y-93930001D01*
X156676666Y-93953810D01*
X156652857Y-94001429D01*
X156652857Y-94072858D01*
X156676666Y-94120477D01*
X156700476Y-94144286D01*
X156748095Y-94168096D01*
X156938571Y-94168096D01*
X156176666Y-94406191D02*
X156462380Y-94406191D01*
X156319523Y-94406191D02*
X156319523Y-93906191D01*
X156367142Y-93977620D01*
X156414761Y-94025239D01*
X156462380Y-94049048D01*
X120694952Y-93626190D02*
X120409238Y-93626190D01*
X120552095Y-94126190D02*
X120552095Y-93626190D01*
X120242571Y-94126190D02*
X120242571Y-93626190D01*
X120052095Y-93626190D01*
X120004476Y-93650000D01*
X119980666Y-93673809D01*
X119956857Y-93721428D01*
X119956857Y-93792857D01*
X119980666Y-93840476D01*
X120004476Y-93864285D01*
X120052095Y-93888095D01*
X120242571Y-93888095D01*
X119504476Y-93626190D02*
X119742571Y-93626190D01*
X119766380Y-93864285D01*
X119742571Y-93840476D01*
X119694952Y-93816666D01*
X119575904Y-93816666D01*
X119528285Y-93840476D01*
X119504476Y-93864285D01*
X119480666Y-93911904D01*
X119480666Y-94030952D01*
X119504476Y-94078571D01*
X119528285Y-94102380D01*
X119575904Y-94126190D01*
X119694952Y-94126190D01*
X119742571Y-94102380D01*
X119766380Y-94078571D01*
D12*
X127360000Y-89464001D02*
X124960000Y-89464001D01*
X124960000Y-89464001D02*
X124960000Y-91864001D01*
X124960000Y-91864001D02*
X127360000Y-91864001D01*
X127360000Y-91864001D02*
X127360000Y-89464001D01*
X130408000Y-91864001D02*
X130408000Y-89464001D01*
X128008000Y-89464001D02*
X128008000Y-91864001D01*
X128008000Y-91864001D02*
X130408000Y-91864001D01*
X130408000Y-89464001D02*
X128008000Y-89464001D01*
X121912000Y-94544001D02*
X121912000Y-96944001D01*
X124312000Y-94544001D02*
X121912000Y-94544001D01*
X121912000Y-96944001D02*
X124312000Y-96944001D01*
X124312000Y-96944001D02*
X124312000Y-94544001D01*
X124960000Y-96944001D02*
X127360000Y-96944001D01*
X127360000Y-96944001D02*
X127360000Y-94544001D01*
X127360000Y-94544001D02*
X124960000Y-94544001D01*
X124960000Y-94544001D02*
X124960000Y-96944001D01*
X157975000Y-91675001D02*
X157975000Y-89275001D01*
X155575000Y-91675001D02*
X157975000Y-91675001D01*
X157975000Y-89275001D02*
X155575000Y-89275001D01*
X155575000Y-89275001D02*
X155575000Y-91675001D01*
X134104000Y-89464001D02*
X134104000Y-91864001D01*
X136504000Y-91864001D02*
X136504000Y-89464001D01*
X136504000Y-89464001D02*
X134104000Y-89464001D01*
X134104000Y-91864001D02*
X136504000Y-91864001D01*
X133456000Y-91864001D02*
X133456000Y-89464001D01*
X131056000Y-91864001D02*
X133456000Y-91864001D01*
X133456000Y-89464001D02*
X131056000Y-89464001D01*
X131056000Y-89464001D02*
X131056000Y-91864001D01*
X118864000Y-91864001D02*
X121264000Y-91864001D01*
X121264000Y-91864001D02*
X121264000Y-89464001D01*
X121264000Y-89464001D02*
X118864000Y-89464001D01*
X118864000Y-89464001D02*
X118864000Y-91864001D01*
X155560000Y-94630001D02*
X155560000Y-97030001D01*
X157960000Y-94630001D02*
X155560000Y-94630001D01*
X155560000Y-97030001D02*
X157960000Y-97030001D01*
X157960000Y-97030001D02*
X157960000Y-94630001D01*
X118864000Y-96944001D02*
X121264000Y-96944001D01*
X118864000Y-94544001D02*
X118864000Y-96944001D01*
X121264000Y-96944001D02*
X121264000Y-94544001D01*
X121264000Y-94544001D02*
X118864000Y-94544001D01*
M02*
